<?xml version="1.0" encoding="UTF-8"?>
<svg width="3660.3" height="310.43" version="1.1" viewBox="0 0 3660.3 310.43" xmlns="http://www.w3.org/2000/svg">
 <path d="m2477.7 5.004e-6c16.809 64.07-29.97 63.815-17.97 111.77 49.641 94.303-21.499 11.37-12.78-38.067 3.2422 82.274-72.669-96.055-17.617 24.25-20.227-33.99 44.04 86.96-8.022-0.9219-64.507-78.143-29.185-38.221 3.2798 20.863-63.052-45.55-43.899-45.054-30.598 3.93-23.378 5.8252-15.841 18.184-20.551-36.02-3.0927 117.34-25.379-135.2-17.32 21.262-10.747-25.491 11.039 56.821-19.539 3.5468-24.328-11.076-12.038-94.958-16.661-20.109 30.32 66.599-117.79-108.52-42.953-21.117 54.735 71.982-49.175-16.6-13.527 13.348 27.411 38.637 13.136 46.275 18.329 50.54 22.581 35.927-1.6547 3.2406 28.132 55.671-41.376-41.995-138.76-160.38-52.461-46.23-7.6104 10.07-21.43-20.851 12 23.961-23.299-30.06-108.83-75.262-77.767-56.004 62.684 43.588 67.15 85.724 27.486 50.833-19.992-61.677 6.1779 148.74-8.4045 42.082 3.3883-30.651-7.0483 91.828-11.666-8.5903 3.5028 43.725-11.085 60.973-4.8594 7.1093-5.6133 133.33-29.724-101.58-22.121 24.711-36.181-19.15-50.642-0.25663-24.918-35.031-16.485-52.541 20.004 63.504-15.152-13.269 48.913 58.283-34.841 62.848-17.75 7.4609-17.557 60.135-19.954-64.486-26.16 7.0977 8.0964 95.749-50.609 22.413-30.429-29.891-16.35 85.472-1.1171-2.9491-14.328 43.871-30.896-57.695-75.089-119.93-19.693-23.696 18.944 30.797 26.693 98.134-2.2095 30.504 28.656 100.1-37.18-96.713-13.828-0.5-51.642-70.498-1.8875 1.1414 0.8086 8.6797-3.1179 63.695-2.8407 13.14-9.3594 16.613-40.402-51.713-64.602-10.56-49.129-59.82-36.338 11.454-21.233-14.309-26.059-54.43 8.6236 45.621-20.736 63.081-33.308 63.449-49.603 76.851 38.021-78.188-10.044-10.871-50.802 45.358 36.51-153.89-21.812-21.642-18.99 63.349 9.1268-92.239-16.824 10.316-22.755 40.143-19.847-144.4-21.126-32.123-32.046 87.134-38.507 18.633-7.8867-30.441-32.183 58.834-16.183 12.8-35.633 83.062-29.315-94.999-43.94-25.947-22.699-38.832-11.553-114.59 9.835 32.559-46.961 8.2422 55.212-74.013-39.44 61.5-9.7578-53.391-1.151 62.879 0.7725-4.9872-5.582 53.027-13.044 34.141 3.9843-112.06-24.36-24.898-18.183 20.137-41.789 59.187-15.618-33.089 11.863-30.565-26.104 74.24-15.093-13.079 9.2197-20.515-34.303 92.154-43.289 6.7475-5.4624-23.164 10.64 119.22-6.4419 43.741-19.86-34.598 29.909-108.55-7.6367-34.711-5.798-64.619-8.5616 19.933-10.082 29.051-42.473 26.993-27.428-132.49-44.691-14.879-7.4678-30.382-5.2547 51.404-21.906-0.6914 20.765 90.404-34.345 34.86-25.422-45.52 6.061 89.791-12.38 41.203-13.59 45.789 19.067 80.432-23.681 8.1483-11.251 10.832-18.944 66.318-19.424-50.366-30.398 6.7696-22.88-31.725-5.9414 6.9192-21.41-35.102 36.997 100.07-18.952 42.651-10.704 8.3555-50.16 30.882 42.351 60.2-39.955-1.3438 10.297-50.209-21.808 79.534-8.9858-15.914 28.336-70.451-26.776 80.807-25.686-2.2583-31.2-15.744-49.674-10.327-16.758 18.789 31.589 120.26-36.652-121.66-11.313-0.3398-78.515-106.21 9.0619-5.6741 4.7891 54.891-34.112-35.431-1.4355-74.393-21.797-22.527-26.029-99.674 32.91 156.51-2.5898 20-29.43 3.701-87.244-130.59-35.547-25.103 27.739 67.975-38.848-78.401-13.113 8.7002-37.773-32.346-43.018-69.609-55.5-9.3203 6.8615-56.189-17.682 69.201-15.383 18.992 6.3146-64.071-6.8321-13.282-11.078 6.3906-14.361 3.1042-21.442-85.489-21.141-54.782 2.9934 46.923-30.302-54.329-6.9491 33.849-54.861-94.706 36.353 76.795-34.672-33.188-66.285-97.892 35.058 48.648-20.41-9.2109 39.947 13.7 56.619 151.22 25.211 50.191 17.682 94.976-31.505-74.535-15.969-2.5195-19.102-44.022 25.823 85.451-16.051-3.4922-19.097-38.172 38.098 89.25-13.478 3.6411-49.154-83.982-29.294-23.413-13.912-6.6919-10.026-1.4672 25.84 26.302 12.219 29.602-61.329-69.768 39.757 57.605-21.569-17.913-46.955-63.036-19.053-22.777-22.798 37.463-17.734-63.614 3.2598 63.611-27.73-7.3007 6.1058-91.365-5.5759 33.134-4.0703-52.461 5.4889 82.793-35.592-15.15-3.2495 58-22.512-38.743-74.188-109.21-56.297-75.113-16.943-47.475 28.747 84.128-0.57373 32.465 3.2952 37.298-26.366 60.867-0.47265 3.8711-35.365 103.25-40.399-128.06-37.621 6.0078-14.497-46.92-6.5213-19.326-23.863-0.3789 1.2044-14.1-46.468-64.073-3.9258 0.168-33.232 28.3 18.411 1.3623-6.2188 35.543 8.8715-38.021-20.072 51.698-1.2656-10.203-35.747 40.684-31.323-141.99-29.496-20.867-20.459-101.25 13.038 77.23-27.398-12.633 42.791 80.933-13.359 37.595-14.547 20.562 76.673-89.491-65.166 63.379-2.125-51.602-29.787 19.783-44.524 92.72-52.047 45.52 5.2233-63.734-10.414 35.051-7.3281-27.828-55.676 116.19 57.331-140.23-9.1601-18.565-40.124 64.509-49.458-74.115-68.84 36.41-11.731-81.368-8.5377 57.194-19.25-23.828 0.54436 86.086-35.655-97.651-22.137 4.5-28.383-39.68-50.962 14.993-12.254 28.09-2.9479-38.978-20.434-35.603-21.36-31.187 20.924 39.656-17.447 44.533-13.445 40.175 4.7894 15.623-7.1876 8.6644-27.68-43.438 56.218 151.36-34.9-32.325-1.375 37.768 13.432 52.376-17.584-54.962-14.043 6.0918-4.574-91.809 5.3675-63.832-12.781-10.852-13.978-21.363-16.751 76.102-8.3359 48.891 0.81245-82.253-4.8081 29.314-8.6211-51.07-8.2838 30.542 4.3988-63.264-16.87-12.411-38.504-104.72 13.1 96.087-2.3604 10.431-9.8095 91.405-23.906 4.6831-21.832-6.8907 6.4254-59.023-8.86 66.021-40.328-26.047-55.57-72.613 1.3307 11.644 3.7578 14.078 10.262 32.3 9.1348 104.96-2.0508 23.59-0.76019 45.268-10.052-41.184-10.012 2.961-9.3524 31.783-9.6139-62.096-7.5352 17.719-22.211-117.63 19.063 77.011-32.562-28.238-31.857-82.536-6.8608 67.264-19.984-6.3711 0.33803 45.423-60.912-44.167 1.2031 29.84-21.021 18.584 30.135 24.67-31.066-21.09-25.439-74.345 15.444 122.59-26.525 11.912-41.469-69.057-44.746-74.562-6.6476 0.63526 30.731 85.317-29.11-50.257 4.1685 36.965-16.199-24.291-48.082-92.294-22.879-23.461-9.2628-19.294 15.738 63.652-20.324 15.051-33.583-51.3-26.974-75.695-23.32 1.0977-43.044-47.253-37.908-60.53-34.77-9.3204-57.704-70.8 41.236 82.859-22.208-7.4798-85.507-117.37 16.009 102.3 14.701 59.705-47.384-61.825-71.95-100.4-29.23-5.6602-38.55-36.676-2.1348-24.707-10.164 12.43-39.463-64.507-78.038-115.74-20.945-17.902 34.646 60.463-126.15-119.72-36.696-17.37-3.6314 3.5165 21.798 20.319 32.622 70.37-52.695-47.612-86.659-69.393-17.652-4.8281 9.518 56.535 99.23 50.072 54.469 22.578 16.037 32.893 90.024 14.201 134.97 18.98 132.44 0.27958 274.67-0.39419 400.06 0-8.7898-17.89 66.732 12.194 98.123 0h711.84c-5.9325-6.7822 146.12 4.007 100.57 0 63.581 0.15716 139.7-0.2126 196.32 0-2.1862-23.509 10.882 13.426 55.717 2e-3 37.273-1.7449 30.38-2.5296 66.486 0h1617.6c-17.884-67.508 12.856 31.579 75.379 0 2.798-44.113 20.974 42.13 31.891-32.668 26.854-67.349 54.024-98.769-3.5396-19.391-45.012 85.08 17.731-60.879-7.0902-16.781 2.5324-64.625 11.156-83.028-33.961-20.859 5.7033-47.661-6.1346-34.879-10.505 2.3848-63.339 132.77 84.282-196.4 0.4971-44.275 12.886-88.98-57.228 160.2-15.563 3.8203 2.3159-132.45 4.9564-5.112-32.73 49.062 1.7589-44.836 35.437-84.533-4.918-17.133 39.166-66.927-22.454 31.659-2.6601-45.059 48.021-43.64-25.864 20.699 14.852-41.191-31.06 83.804-45.318 45.179-16.524-34.168-27.618 62.767-38.217 164.41-29.426 36.546 0.7976-4.5384-14.925 90.93-19.812-10.308 7.1508 108.38-18.285-32.09-16.782-26.008 23.701 80.911-34.673 93.738-18.367 123.45-21.892-32.96 30.882-70.707-10.23-22.461 5.978-4.9631-3.2779-51.164 25.488-100.15-29.591 92.814-60.951 111.62-64.372 6.0976-1.334-27.96 4.3658 181.36-5.7378 45.602-2.4369 41.054-2.6885-45.436-5.2947 28.258-6.1941 56.854-9.2645-55.691-6.6272 14.472-31.272-23.454-47.362-17.122-29.047-13.57 2.0793-30.262-26.119 0.22686-2.3831-57.582-31.242 51.781-14.117-19.3-25.32 62.801 5.4299 9.6029-22.554-46.873-39.525-50.92 9.3392 51.31-10.248 63.384-9.3735-11.228 4.7847 64.466 21.247 86.242-6.8088 48.008 2.8853 8.7202-32.038-11.197-26.359-17.469-13.582-55.952 2.2479 83.849-29.365 2.0186-85.332-94.187 0.1019-10.136 11.57 45.501-1.7145-17.748-6.65 36.912-20.559-24.008-11.988 25.136-22.691 17.201-17.762-10.75-7.9476-64.175 5.7574 31.059-24.387-30.48 54.542 101.09 1.3869 48.764-25.102-2.6329 35.188 47.832 26.356 61.531-7.5586 12.781 70.371 88.863-16.653 38.755-2.5229 28.441-17.309-3.6088 19.14 36.884-0.8786 15.859-9.8625 31.476-29.304-3.6665-24.374-11.739 30.702 86.933-30.641-81.323-15.153 4.6377-27.5-40.833-16.242-1.0887-18.07-1.1094-12.62-3.5648 4.954-7.9793-16.992 40.211-37.343-10.451 16.497-142.69-21.524-39.099-15.404 55.573-18.915-82.035-14.484 27.83-26.595 32.668-37.136-153.4-26.543-24.512-33.696 27.363-29.126-43.185-35.457 32.789-11.667-69.617-19.14 44.181-25.051-56.207 1.4316 75.282-20.658-9.0031-0.8906 66.25 9.5026 2.439-31.135 14.827-20.539-45.442-9.9169 72.349-5.5891-44.409-8.891 35.332-12.959 17.043-21.766 32.552-11.699-16.75 2.6653-27.258-3.769 31.584-36.21-44.408-3.2301-38.843 23.533 105.85 3.9987 34.115-11.807 31.45-20.743 74.798-10.172 46-15.775-102.33-21.05-42.164-20.207-28.75-43.985-31.248-19.712-86.332-53.73-20.66 1.4776-39.875-37.134 6.4215 2.2188-26.539 79.493-96.771-27.225-11.788-19.758-3.4492 14.214-72.233 14.253-99.044-6.4102-12.652 6.3496-58.199 10.694-2.9535-3.6328-0.9297-14.916 66.485-8.3165-74.264-12.238 18.09 18.967 150.02-143.64-428.75-32.469-25.129-22.561 71.49 52.38-172.26 0.2978-36.036-22.446 108.44-44.91 21.053 4.8311-23.324-55.994 89.889-20.464-3.7198-25.182-17.817-37.708 41.336-6.952-56.058-24.97 29.157-2.0805-94.904-4.7761 62.719-15.109-1.0781-41.125 121.08 30.971-76.878-3.7891-63.441 12.676 108.67-75.663 111.95-25.16 13.078-27.744 51.332-15.344 47.337-33.57 89.871-12.161-52.464 39.386-177.7-4.5205-62.828-10.237 125.95-38.712-111.29-22.015 25.603 10.286 55.37-23.559-86.046-20.516-87.508zm390.11 223.83c-0.063-0.1701-0.063 0.0417 0 0zm2.8633-7.9492c-0.8091-0.91242 0.2833 9e-3 0 0zm7.2891-56.641v-0.07zm85.258 43.699c-0.052-0.17187-0.052 0.0236 0 0zm107.31-22.109-0.07-0.082zm1.3906-11.75c-0.6257-0.66219 0.2154 9e-3 0 0zm27.469 20.238c-0.359-0.23373 0.1206 0.01 0 0zm-20.332-47.18-0.039-0.051zm88.172 48.77c-0.1615-0.53979-0.1307 0.0984 0 0zm-1.5195-3.789c-0.063-0.11262-0.04 0.0132 0 0zm164.59-19.18c0.024-0.189-0.062 0.0161 0 0zm17.211-82.91-0.012-0.07zm-3314.3 118.35c0.02512-0.0599-0.12754-0.0549 0 0zm2.1172-50.141c0.04688-0.0849-0.14856-0.0805 0 0zm43.801 47.168c-0.03156-0.0921-0.02131 0.0292 0 0zm6.25 6.3203c-0.10426-0.12318-0.0143-0.0263 0 0zm128.42-41.848c-8e-3 -0.16594-0.0783 8e-3 0 0zm86.73-47.352c-0.11707-0.17837 0.0236 0.0338 0 0zm187.05 25.73c0.0526-0.0848-0.13313-0.0806 0 0zm35.691 18.508-0.0391-0.047zm64.543-26.66c-0.0451-0.16463-0.0594 0.0101 0 0zm161.28-26.629 0.0508-0.078zm16.672 31.039-0.0312-0.059zm22.027-24.82c0.0936-0.0879-0.0881-0.0882 0 0zm59.211 19.473c-0.15388-0.1522 0.01-0.0655 0 0zm171.86 2.6602-0.043-0.043zm33.848-14.852c-0.088-0.14311 0.035-4.6e-4 0 0zm212.68 7.8321-0.039-0.051zm226.59 13.328-0.059-0.078zm456.35 13.48c-0.042-0.1795-0.041 0.0274 0 0zm281.36-26.809-0.039-0.051zm-16.688-45.91c-0.07-0.05419 0.012-0.02754 0 0zm61.309 37.43-0.039-0.051zm63.449-37.063c-0.081-0.2506-0.077 0.04922 0 0zm146.27-14.809c11.503 72.321-0.3906 113.44 0 0zm-846.86 14.77c2.6239 73.884-34.136 66.727 0 0zm970.68 4.5313c6.3178 62.208-27.669 37.538 0 0zm-333.65 3.4179c52.026 42.13 65.475 105 8.1382 25.397zm-959.86 6.8399c37.989 30.848-9.7269 49.283 0 0zm1011.4 0.051c26.595 29.494-0.092 19.573 0 0zm-791.25 1.6523c9.6207 17.225-9.7025 3.7204 0 0zm-354.97 0.3594c55.784 79.15 4.0055 48.799 2.6914 39.859 16.917 13.62-36.771 50.92-2.6914-39.859zm1362.1 0.6875c10.738 48.94-7.6636 63.866 0 0zm-143.49 0.7695c41.538 31.002 4.9696 49.686 0 0zm-1047.7 0.961c-15.171-68.205 9.5839 9.3183 19.449 45.383 19.123 31.088-26.271-8.156-19.449-45.383zm-716.3 1.0625c17.935 23.249-0.7414 90.185-2.0625 25.726 11.701 56.248-30.767 32.647 2.0625-25.726zm897.84 0.9101c25.59 39.248-16.947 13.19 0 0zm65 3.0977c38.35 30.455 0.8159 81.295 1.2305 6.0312zm731.39 0.6523c17.222 17.341 1.9988 17.868 0 0zm-10.91 1.25c6.0524-0.84302 5.3301 16.555 0 0zm291.12 0.2696c10.776 29.881-36.501 56.933 0 0zm-62.828 1.6679c19.749 34.809-6.0192 30.985 0 0zm-1905.1 0.6524c32.377 36.094-9.2977 62.129 0 0zm885.96 3.6875c24.615 34.636-18.58 23.638 0 0zm857.22 1.0117c64.534 54.974 13.229 85.687 0 0zm-703.02 0.5898c-0.7695 0.65075-23.6 101.2-14.762 28.07-12.965 52.622-4.0059-26.999 14.762-28.07zm657.68 0.2891c18.249 21.896-0.94 10.42 0 0zm-795.19 1.1914c43.968 58.317 46.251 70.441 19.832 38.098l-15.461-19.367-4.3711-18.73zm-429.72 0.6602c17.106 44.628-6.9671 28.291 0 0zm465.45 0.3671c10.743 39.987-7.8526 12.994 0 0zm-205.07 0.3125c28.956 24.561-0.8619 13.4 0 0zm156.3 0.1094c20.414 21.9-3.7704 48.642 0 0zm-197.44 0.5391c18.409 6.7859-20.823 36.052 0 0zm-112.44 3.0312c33.985 53.465 8.5467 43.94 0 0zm94.68 1.3985c18.721 8.6148-7.79 49.773 0 0zm-1008.7 0.2617c50.406 83.155 20.078 52.475 14.117 52.211-25.864-29.383-3.6785-26.442-14.117-52.211zm895.07 0.039c34.236 37.175 3.505 43.135 0 0zm1132.9 0.7383c4.9928 1.0272 1.8288 15.465 0 0zm-812.22 0.3828c24.005 37.503-14.298 31.733 0 0zm-529.91 0.8477c34.308 32.468 19.526 76.554 0 0zm-318.46 0.012c2.6491 36.128-14.237 12.873 0 0zm238.53 0.25c56.681 70.109-7.2979 65.833-5.0508 17.238 5.3508 65.35-25.5 45.988 5.0508-17.238zm505.33 0.031c13.338-0.99521-7.633 17.979 0 0zm-79.66 0.1797c35.046 52.614-30.777 29.067 0 0zm1081.3 0.5703c20.221 18.162-7.5485 8.6606 0 0zm-948.05 0.2187c10.132 10.825-4.4276 36.679 0 0zm1000.4 1.1406c11.686 18.94 7.9209 21.579 0 0zm-723.28 1.3789c2.3647 5.8312-2.4604 0.70725 0 0zm658.26 0.2696c11.608 4.1879 12.695 33.421 0 0zm-982.06 0.3594c38.695 18.352-18.317 69.161 0 0zm322.85 0.3125c44.14 92.054-61.194 45.783 0 0zm-1172.3 0.5976c3.5666 3.5114-0.39198 1.488 0 0zm800.21 0.3125c17.456 8.7989-4.1851 41.264 0 0zm445.62 0.4805c21.772 111.21-53.438 124.37-6.2721 13.868zm-1444.5 0.2969c33.739 52.3 1.4244 69.422 0 0zm645.43 0.1523c8.252 0.95353 20.59 37.779 0 0zm389.94 0.2891c8.2674 2.4073-4.7915 16.15 0 0zm1114.3 0.1484c4.7611 2.5094-1.5818 16.663 0 0zm-1677.8 0.3008c4.4727 3.3364-10.104 13.098 0 0zm1493.6 0.1015c42.642 55.116 16.365 59.385 0 0zm-1180.6 0.02v0zm1250.2 0.7383c8.8649-1.3813 3.1536 18.779 0 0zm-1140.3 0.2226c6.185 0.67433 1.5287 17.48 0 0zm-695.62 0.1289c26.609 5.0716-14.647 33.567 0 0zm273.64 0.1016c43.771 70.92-29.22 48.922 0 0zm-192.23 0.457c4.8677 17.482-25.305 32.548 0 0zm38.598 1.0625c8.8236 66.196-24.747 44.787 0 0zm35.812 0.2305c4.1891 43.017-19.534 26.488 0 0zm806.47 0.3086c1.1967 9.4922 0.8822 29.877 0 0zm-415.02 0.039c7.4293 7.5413 1.1718 39.837 0 0zm312.14 1.4805c36.533 25.448 5.4922 108.5 0 0zm-887.33 0.031c19.951 71.621-24.567 36.971-5.7578 17.641l3.8047-11.461zm-141.5 0.4179c17.353 51.494-24.851 14.543 0 0zm1171.9 0.4024c15.466 24.281-14.606 27.936 0 0zm-186.9 0.047c32.02 27.706-3.9071 13.364 0 0zm-799.21 0.3125c9.1009 21.945-12.758 2.2468 0 0zm17.223 0.3789c6.4427 1.4776-3.9413 13.792 0 0zm1012.4 0.6016c0.38 23.735-4.1811 20.456 0 0zm-1028.1 0.4102c24.172 31.748-4.218 18.677 0 0zm1825.5 0.4882c25.846 20.942 0.595 26.753 0 0zm-1231.4 1.0899c21.805 12.139-13.12 32.541 0 0zm328.71 0.3711c20.519 14.762-7.3141 69.333 0 0zm2.6328 5.789-0.051-0.078zm-240.57-5.0195c32.646 30.124 3.6853 31.964 0 0zm345.38 0.2578c7.113 2.5676-5.8056 20.007 0 0zm1564.5 0.2422c11.42 3.7503-5.5397 19.43 0 0zm-1772.5 0.9414c6.641 18.139-6.6523 8.8372 0 0zm-981.57 0.1289c6.5405 89.771 1.3225 46.422-0.2892 20.398 11.927-23.101 22.883-86.514 0.28906-20.398zm1037.8 0.711c6.5468 6.1868-0.9329 29.054 0 0zm-371.14 0.7382c10.493 0.59964 4.8829 33.965 0 0zm-516.08 0.1485c33.239 48.502-18.743 26.696 0 0zm148.22 0.3125c17.585 7.9614-7.948 33.315 0 0zm817.29 0.01c28.771 46.418-5.1782 41.495 0 0zm-1279.4 0.293c49.729 71.221 12.788 46.812 7.1836 33.098 42.669 103.39-11.205 2.2493-1.2852 19.723-2.9064-55.874-3.5084 70.2-3.543-18.441-5.8436 38.234-3.9478-29.229-2.3555-34.379zm393.29 0.059c9.0997 26.416 4.925-33.443-1.7344 4.2382zm867.31 0.012c15.893 28.548-1.1601 20.691 0 0zm-916.44 0.2383c28.524 28.242-14.838 40.926 0 0zm2577.8 0.1093c39.706 51.641 12.472 105.04-0.8636 23.77l-2.3399-14.141 3.2227-9.6289zm-773.55 0.059c12.447 14.203-1.7606 5.5165 0 0zm-1252.1 0.1836c9.3519 5.3754 0.033 35.027 0 0zm151.46 0.1485c0.7131 0.20973-0.2224 2.0062 0 0zm-157.26 0.3515c8.7808 62.022-5.0283 51.477 0 0zm-329.43 0.039c12.398 4.0964-7.037 28.035 0 0zm497.73 0.098c20.442 26.14-3.278 9.0516 0 0zm1263.4 0.062c4.0604 16.93-21.14 46.612 0 0zm-1396.9 1.0782c3.7999 1.0848-4.0482 8.8636 0 0zm-82.309 0.1406c2.6464 3.7269-0.6108 1.2113 0 0zm239.17 0.2695c22.96 29.33-0.7323 53.707 0 0zm-562.56 0.1094c10.769 27.827 3.5382 60.299 0 0zm1771.2 0.2695c9.3883 19.872-12.852 24.441 0 0zm-2003.1 0.2227c25.875-0.60302-3.8329 28.172 0 0zm830.67 0.2695c20.501 29.742-12.649 28.658 0 0zm-191.71 0.01c31.846 18.4 4.232 44.714 0 0zm73.699 0.031c8.517 11.103-6.9584 3.758 0 0zm578.83 0.082c-7.0839 48.428-26.703 52.403 0 0zm-781 0.01 11.883 25.992zm-601.75 0.039c15.72 10.928-8.0362 24.329 0 0zm2180.5 0.2422c38.848 34.219-12.352 38.515 0 0zm-990.25 0.1601c9.696 34.801-17.201 13.039 0 0zm23.793 0.1602c17.695 23.393-17.376 56.742 0 0zm-510.97 0.2187c24.693 24.875 0.9186 60.143 0 0zm-522.34 0.07c1.4622 18.796-6.7046 10.037 0 0zm-287.05 0.3711c1.6061 1.8796-3.3065 7.7318 0 0zm-216.5 0.3789c45.471 49.457 21.188 64.307 0 0zm490 0.1094c8.2324 28.383-6.6478 19.424 0 0zm1230.8 0.1719c-0.8758 22.824-11.23 51.359 0 0zm-157.61 0.25c21.167 36.141 249.71 115.59-7.6172 14.367zm-439.31 0.078c23.419 26.517-26.303 11.473 0 0zm-529.13 0.6289c5.667 0.86234-3.1557 7.9088 0 0zm481.55 0.024c27.128 28.927-10.605 13.262 0 0zm-498.95 0.2265c16.564 37.103-8.9765 6.9046 0 0zm1709 0.6133c7.3283 17.24-2.6976 9.2944 0 0zm-2069.6 0.3203c1.3164 4.0057-4.3762 5.8929 0 0zm307.14 0.027c4.3733 2.8395-3.7515 15.362 0 0zm2573.1 0.3828c46.078 34.938 10.202 87.304 0 0zm-540.34 0.039c8.9417 27.363 9.8618-6.1908-5.7266 14.25zm584.92 0.2579c22.353 62.489-2.2528 38.48-5.4102 30.062l2.3184-15.537zm-1801.6 0.2109c6.1212 6.2466 0.8853 11.777 0 0zm-299.51 0.1406c16.506 16.261-6.035 17.01 0 0zm-436.45 0.4492c22.788 12.052-3.3626 26.536 0 0zm1860.5 0.5821c0.6358 2.62-0.7769 0.41792 0 0zm15.32 0.1093c3.4301 1.4129-1.9882 10.139 0 0zm-1292.7 0.098c16.783 18.745 8.8891 23.234 0 0zm971.87 0.2305c20.442-3.9506 14.458 50.096 0 0zm-546.28 0.1406c12.946 22.967 0.2893 38.573 0 0zm-720.49 0.02c9.7814 13.487 0.5922 21.087 0 0zm-43.09 0.1094c27.246-0.0948-12.944 39.74 0 0zm-333.72 0c-3.1853 26.792-8.5334 31.858 0 0zm960.73 0.0427c0.5789 8.0937-3.8223 3.951 0 0zm-38.262 0.1914c9.8761 21.977-9.2558 4.4634 0 0zm-1220.7 0.2187c22.079 46.432-6.4671 29.959 0 0zm1025.9 0.3086c11.272 30.576-11.972 15.208 0 0zm-58.281 0.2422c0.107 0.23762-0.057 0.0508 0 0zm385.51 0.039c8.9412-0.0283-2.6411 11.874 0 0zm-848.79 0.332c13.305 4.925-4.9964 39.966 0 0zm1869 0.418c48.161 65.617-41.791 39.217 0 0zm-2375.6 0.031c0.11549 0.44018-0.92253 1.6578 0 0zm2249 0.051c2.7433 5.5365-3.6682 9.2468 0 0zm-1010.3 0.039c0.7494 3.8171-2.22 2.3217 0 0zm878.69 0.3086c6.1753-1.1667 3.1165 14.377 0 0zm-1990.3 0.5c18.58 12.74-2.2687 13.044 0 0zm-306.2 0.289c21.591 20.18-8.6918 27.7 0 0zm1304.7 0.3438c27.258 23.11-4.1983 32.706 0 0zm-739.84 0.078c29 27.259-4.7009 72.415-4.3242 6.4492zm-306.02 0.1992c3.6666 9.4006-1.672 35.462 0 0zm1780.5 0.4613c52.02 39.315 21.685 23.785 27.89 34.384 12.826 49.607 1.0946-7.2641-12.94 39.487 15.107-24.531-20.754-0.62556 3.6992-42.641-23.621 25.565-5.6123-44.424-15.289 24.891-1.6761-18.667-3.4656-37.35-3.3594-56.121zm32.469 51.801-0.059-0.07zm-878.63-50.812c0.8216 1.6127-0.781 0.2818 0 0zm-656.14 0.1524c2.7047 2.0736-5.2175 4.8141 0 0zm-496.3 0.5781c6.7846 6.823-0.16062 21.372 0 0zm349.5 0.1328c6.1804 16.071-7.6954 2.8767 0 0zm55.445 0.027c11.467 12.335-5.3349 29.033 0 0zm212.6 0.07c1.9998 2.063-1.046 0.84366 0 0zm-82.184 0.019c2.1928 0.20298 0.18135 5.6803 0 0zm-83.633 0.043c17.918 14.605-7.8891 7.8079 0 0zm-206.29 0.5664c16.17 18.945-8.2389 53.178 0 0zm2140.5 0.082c7.9028 8.9777-4.5236 7.8579 0 0zm-1889.1 0.2578c16.67 26.708-16.017 11.622 0 0zm285.46 0.031c10.84 2.456-14.335 13.82 0 0zm236.93 0.1406c1.3555 0.82439 2.5833 5.6776 0 0zm88.973 0.4297c7.0696 6.416 0.5954 7.0312 0 0zm1214.7 0.031c0.1994 0.19954 0.042 1.1788 0 0zm-2400.2 0.2774c55.744 52.608 8.4027 51.43 0 0zm1578.3 0.031c63.498 82.406-27.823-34.248 24.648 43.902 3.7454 37.38-31.828-41.236-24.648-43.902zm1496.3 0.02c7.4072 8.597-2.6221 3.3312 0 0zm-651.56 0.1015c2.2419 3.9898-2.3892 5.0408 0 0zm-1105.4 0.051c5.0957 3.085 4.5958 15.095 0 0zm-702.91 0.168c25.193 23.863 1.2399 21.663 0 0zm-400.59 0.1094c0.42977 5.7668-1.6543 0.66346 0 0zm3180 0c6.5506 12.147-27.214 57.23 0 0zm-3057.5 0.25c12.03 11.594-3.1622 21.749 0 0zm1170.1 0.1406c1.7497 0.80822-0.3345 0.46188 0 0zm443.46 0.031c27.618 55.397-25.453 13.347 0 0zm-764.73 0.5899c27.162 46.045-2.7021 37.331 0 0zm-322.92 0.02c30.402 1.203 24.943 84.599 18.381 23.879 3.5391 81.401-9.3118 11.012-10.066 3.5513-10.7 52.844 14.626-39.118-13.215 4.8315 24.089-57.505-30.454 39.544 4.9001-32.262zm129.02 0.02c3.8954 7.1775 1.2949 8.4265 0 0zm-641.14 0.2422c24.072 11.135-11.609 16.203 0 0zm2152.4 0.2383c19.581 28.722-12.146 28.043 0 0zm-1809.1 0.2305c31.959 47.199 9.3057 120.64 0 0zm2186.5 0.02c42.237 28.249-15.556 40.417 0 0zm-1733.5 0.1094c4.3965-1.1885 3.3611 10.122 0 0zm-207.03 0c0.1815 0.35987-0.074 0.0909 0 0zm553.69 0.1015c0.5382 0.16408-0.3721 1.1115 0 0zm968.67 0.1485c6.2276 4.8822-1.1902 20.188 0 0zm-1994.8 0.031c23.052 28.922-1.5935 19.046 0 0zm-252.3 0.031c8.4059 26.125 5.9943 43.007 0 0zm550.15 0.098c8.6888 12.905-6.1859 4.1235 0 0zm1617.4 0.051c3.6558 10.026-3.9962-0.38125 0 0zm-1929.7 0.1289c6.2846 2.2852-3.115 17.806 0 0zm1824.5 0.02c11.748 4.9708-3.6626 36.684 0 0zm-771.66 0.4609c13.07 7.1689 8.3576 28.695 0 0zm666.96 0c35.467 18.698 5.1441 35.798 0 0zm-1444.1 0.082c8.8141 12.138-6.1289 18.423 0 0zm-648.29 0.039c13.265 18.04-1.4433 14.038 0 0zm1039.2 0.07c19.385 11.226 0.4774 32.694 0 0zm-591.34 0.207c15.414 5.451-14.391 23.638 0 0zm2466.5 0c21.644 55.69 3.1222 32.306 0 0zm-848.71 0.3008c47.305 33.247 14.887 37.794 0 0zm937.7 0.4297c11.777 9.7159 3.6854 20.219 0 0zm-1999 0.1211c3.1201 3.5567-1.5392 1.1974 0 0zm-33.27 0.2187c20.57 17.305-3.8729 8.5145 0 0zm-456.37 0.09c3.4065 19.607-7.5599 3.9406 0 0zm-307.82 0.2812c-0.17095 7.4591-0.92183 0.4582 0 0zm752.69 0.4414c8.4725 4.2911-7.9578 24.566 0 0zm774.27 0.1407c41.404 61.817-1.0627 34.844 0 0zm-921.7 0.2382c1.86 1.6457-0.3429 0.75265 0 0zm-455.31 0.1211c13.552 12.013-3.9652 46.877 0 0zm177.64 0.09c2.8002 4.278-1.1536 1.264 0 0zm2458.7 0.1406c18.801 59.762-6.3767 57.617 0 0zm-469.11 0.098c4.6961 4.6608-1.2596 1.8988 0 0zm-241.57 0.02c5.2604 12.406-11.089-3.8425 0 0zm678.69 0c8.5958 23.054-7.8705 4.4638 0 0zm-1719.4 0.031c6.7503 5.0806-2.9278 2.2217 0 0zm1197.6 0.2188c22.371 30.975-23.17 16.963 0 0zm-1202.5 0c3.9166 1.5567-0.3296 11.449 0 0zm-748.13 0.1914c17.19 7.2519-18.28 40.331 0 0zm1005.4 0.4297c29.159 40.81-6.1127 85.304 0 0zm-121.6 0.07c0.527 0.33709-0.017 2.247 0 0zm326.28 0.1211c36.152 32.423-43.45 71.723 0 0zm-1359.1 0.01c19.158 48.812-18.099-22.472 4e-5 0zm344.36 0.1602c23.834 38.02-12.098 37.17 0 0zm2168.3 0.4101c10.978 9.8271-3.0049 4.5984 0 0zm36.348 0.082c13.842 17.882-3.4991 6.1956 0 0zm-2758.4 0.466c0.62077 2.2007-0.41904 0.54389 0 0zm40.547 0.2891c9.2978 11.975-13.791 31.636 0 0zm885.42 0.1211c5.4546 5.3446-1.615 2.431 0 0zm-341.45 0.1211c11.754 54.019-13.781 18.256 0 0zm1808.7 0.098c22.106 28.212-18.143 65.568 0 0zm-1552.5 0.25c14.487 10.081 9.7348 26.287 0 0zm-611.22 0.07c8.0572 3.0372-2.3059 25.163 0 0zm-81.941 0.039c5.1523 9.1923-9.9946 4.5265 0 0zm33.02 0.07c24.019 20.928-12.055 20.144 0 0zm462.34 0.1406c-0.32787 4.2475-1.9437-0.10585 0 0zm-817.67 0.3516c23.463 16.455-7.3867 40.873 0 0zm937.38 0.1094c2.3057 0.7674-0.6287 7.2153 0 0zm-807 0.3007c10.259 9.6464-0.70902 7.7892 0 0zm2600.6 0.051c32.322 25.02-5.9232 12.555 0 0zm-2407.7 0.01c15.96 9.7105-7.0615 13.129 0 0zm2759.7 0.1407c17.295 18.443-0.8237 39.459 0 0zm-244.44 0.1914c0.8992 0.24832-0.808 1.8827 0 0zm-2795.6 0.1172c0.25173 0.0989-0.0438 0.81621 0 0zm-35.422 0.2109c10.879 11.744-4.8058 4.8851 0 0zm3175.4 0.082c10.342 2.324-5.07 21.256 0 0zm-2801.3 0.047c26.818 30.233-20.012 16.313 0 0zm1866.9 0.1523c12.473 34.941-7.2616 17.803 0 0zm882.17 0.2579c11.224 11.22-2.4545 20.004 0 0zm-2211.8 0.043c12.923 22.906-12.204 4.1387 0 0zm-875.19 0.418c11.854 8.4076 1.9086 33.873 0 0zm915.14 0.039c1.7778 2.9158 1.3679 5.5426 0 0zm1880.8 0.031c27.356 27.928 9.3196 26.795 0 0zm-2530.9 0.031c11.544 8.816-3.8987 9.0799 0 0zm974.3 0.1289c16.548 35.493 1.3881 29.754 0 0zm1350.6 0.051c29.923 34.26-8.0363 60.383 0 0zm-1346.2 0.02c4.1409 0.26224 2.1239 11.801 0 0zm-681.77 0.09c12.63 20.47-13.646 7.3902 0 0zm2591.6 0.1914c4.428 15.487-9.9058 1.4918 0 0zm-2499.1 0.2891c24.654 21.474-19.296 49.576 0 0zm-290.84 0.1875c10.022 10.74-5.8597 24.247 0 0zm182.66 0.1914c18.677 14.59-10.163 14.806 0 0zm1181.8 0.039c54.479 55.131-16.686 44.776 0 0zm1282.3 0.09c9.7473 8.4715-2.1161 6.9424 0 0zm-2045.6 0.3633c1.4246 34.776-8.7413 52.403 0 0zm486.15 0.1797c13.929 7.8001-6.0423 12.083 0 0zm-311.85 0.01c1.1356 4.7171-8.0875 10.717 0 0zm1575.8 0.2812c16.716 52.644-18.919 24.15 0 0zm376.97 0.039c13.865 4.4547-4.2424 38.567 0 0zm-1911.7 0.2187c6.8348 10.723-0.2328 47.615 0 0zm1003.8 0.043c13.348 8.5604 1.9124 53.633 0 0zm-1648.8 0.039c15.89 10.678-8.9558 33.667 0 0zm138.08 0.1211c17.31 28.701-7.1395 18.323 0 0zm1815.8 0.3984c12.151 11.787-27.193 58.739 0 0zm-2482.7 0.1484c6.608 8.0155-1.5657 2.9369 0 0zm196.45 0.043c9.1125 19.016-11.964 4.4556 0 0zm506.31 0.3594c5.6076 24.544-14.826 4.2997 0 0zm185.81 0.3281c0.4357 2.9204-0.39 0.45018 0 0zm-931.26 0.1719c18.356 17.654-6.3018 43.398 0 0zm2723.2 0.1289c28.712 57.761-11.429 29.881 0 0zm-997.88 0.2109c-14.818 43.626-38.262 52.468 0 0zm1105.6 0.09c31.801 29.876-5.8842 57.261 0 0zm24.34 0.25c23.222 4.8564 27.882 52.667 0 0zm-2124.7 0.098c14.424 0.50114-2.2998 16.463 0 0zm2555 0.012c-2.7729 55.371-15.62 4.6526 0 0zm-2821.4 0.07c13.353 20.502-8.3037 12.193 0 0zm2425.4 0.039c3.3893 0.91135-1.5455 3.8535 0 0zm-1860.9 0.031c6.8559 12.01-6.8386 14.57 0 0zm1537.5 0c25.246 43.616-7.3805 12.828-1.707 27.578zm-1109.5 0.031c11.552 26.434-11.508 35.886 0 0zm1721.9 0.2071c5.4686 6.7236-6.6549 7.6008 0 0zm-3000.8 0.2617c14.435 7.048 6.1662 34.732 0 0zm3216.8 0.1289c-1.2808 65.073-12.31 67.634-19.152 68.282-28.375 42.509 2.7376-25.923-24.516 35.308-21.635 30.701 25.162-97.324 43.668-103.59zm-564.71 0.1523c1.941 63.198-11.784 33.627 0 0zm-2536.5 0.047c0.89947 0.24424-0.68386 1.64 0 0zm1307.1 0.293c10.847 42.03-11.7 4.3631 0 0zm-252.54 0.1367c4.3985 6.4058 0.093 9.702 0 0zm1786.7 0.1523c23.675 9.9738-2.6415 17.388 0 0zm-3010.9 0.1289c10.491 3.8407-4.9484 29.586 0 0zm198.19 0.051c9.7065 9.3384-8.2531 2.4536 0 0zm111.09 0.031c2.8572 3.2334-0.78409 6.782 0 0zm868.69 0.3672c6.5949-0.81182 1.9927 14.11 0 0zm-996.32 0.062c3.4969 3.2579-2.5903 1.9124 0 0zm2162.1 0.1601c13.578 22.978-15.232 15.584 0 0zm-2407.2 0.039c19.537 38.139-6.5564 10.916 0 0zm2831.5 0.09c23.994 26.542 6.0711 10.16 0 0zm-2397.2 0.059c11.942 6.0776-14.065 23.556 0 0zm715.69 0.6992c2.8405 10.256-3.8719 1.5528 0 0zm1898.9 0.1407c18.404 46.281-16.268 9.4899 0 0zm-2814.2 0.019c6.7969 7.7706-7.5394 14.8 0 0zm505.66 0.1523c-9.2449 35.144-24.014 32.643-5e-4 0zm-494.34 0.2578c1.6998 2.125-0.0102 1.5371 0 0zm2847.5 0.012c6.5996 11.735-7.3006 3.8862 0 0zm-262.92 0c10.321 5.0712-7.384 15.98 0 0zm-2933.6 0.1093c32.251 35.029 13.341 35.285 0 0zm2293.4 0.1407c16.769 18.21 5.8919 49.294 0 0zm-1904.6 0.2695c16.705-1.2582-1.6957 23.362 0 0zm2737.6 0.1211c0.9739 0.0335 0.052 2.2814 0 0zm-2564.2 0.1484c2.298 4.1045-2.5784 1.1324 0 0zm-477.11 0.1406c0.86123-3.3915 26.577 73.266 0 0zm1462.2 0.1094c1.7636 3.5709-4.8958 9.1718 0 0zm-1133.5 0.1602c31.743 28.788-9.3233 23.953 0 0zm-68.02 0.031c9.4542 0.45487-1.1379 10.16 0 0zm-70.016 0.031c1.412-0.0655-0.0763 2.2818 0 0zm1946.1 0.1094c10.51 10.028-5.5135 11.904 0 0zm-1085.2 0.1289c7.7401 5.8887 0.9416 7.9689 0 0zm-775.05 0.031c8.534-1.5849 4.2621 18.996 0 0zm-191.4 0.5195c19.693 39.764-9.6664 26.123 0 0zm2916.3 0.3594c5.8137 5.033 0.144 15.514 0 0zm-2454 0.1016c13.685 13.838-8.4415 12.299 0 0zm-576.16 0.1172c15.115 13.322 4.5806 10.03 0 0zm2455.8 0.012c10.063 3.928-9.2258 19.136 0 0zm-565.43 0.078c14.873 23.96-2.7504 48.441 0 0zm1011.1 0.062c17.375 12.892-4.1251 21.79 0 0zm-1198.3 0.1992c-13.359 49.842-30.382 28.66 0 0zm1417.3 0.031c24.965 14.647-15.824 35.256 0 0zm48.188 0.1797c15.224 21.39-18.57 26.789 0 0zm-2604.9 0.3203c10.937 15.549-18.17 23.052 0 0zm-364.8 0.0751c9.8018 23.359-7.2479 20.031 0 0zm405.6 0.02c2.7232 0.69883-1.4087 5.5537 0 0zm1786.8 0.1719c21.388-1.4308 9.9364 21.953 0 4e-4zm-2494.6 0.01c33.961 50.634-10.858-9.3641 30.344 51.25-13.984-14.294-25.255-31.743-30.344-51.25zm325.29 0.1289c8.0039 5.1563-0.11644 14.359 0 0zm2658.7 0.1211c47.676 47.784-9.7798 54.299 0 0zm3.6015 27.141-0.07-0.078zm392.96-27.109c8.2115 48.096-12.131 47.097 0 0zm-753.97 0.059c0.7696 0.63105 0.033 0.31244 0 0zm-1778.8 0.02c3.4611 0.8568-1.468 8.8903 0 0zm1202.6 0.1016c4.2197 0.16431-0.5562 7.9042 0 0zm-1222.6 0.059c12.661 12.029-3.8152 4.5644 0 0zm2150 0.1328c3.7717 11.395-10.69 16.213 0 0zm-350.81 0.047c0.8724 0.58099-0.2642 0.18134 0 0zm403.02 0.012c6.9147-0.64352 2.0879 16.463 0 0zm-236.2 0.1679c10.536 7.7609-12.369 33.21 0 0zm151.07 0.1328c40.401 38.067-9.0098 20.943 0 0zm-2315.3 0.3086c5.208 5.554-3.8473 2.7682 0 0zm2718.7 0.1524c0.2966 1.5827-0.3081 0.31004 0 0zm-331.36 0.039c20.722 28.197 2.9175 24.136 0 0zm-145.58 0.5586c7.9807 1.0267-4.0285 12.124 0 0zm-2474.3 0.02c6.9788 4.3046-0.73637 4.5739 0 0zm2487.3 0.051c40.919 32.8-11.816 27.986 0 0zm-677.52 0.2383c21.394-1.2357 15.986 55.895 0 0zm-634.44 0.094c8.3753 7.9173-6.2005 12.211 0 0zm1133.3 0.1562c7.3731 21.306-2.3776 37.887 0 0zm-2609.5 0.2813c11.674 18.929-1.4547 27.77 0 0zm2937.6 0.3398c15.268 9.6653-1.1971 18.462 0 0zm-2619.1 0.0455c6.0515 3.8031-1.5363 8.8339 0 0zm769.31 0.051c4.4963 1.1906-3.1317 6.8215 0 0zm1090 0.1094c17.643 25.173-8.5899 7.4854 0 0zm-1085.7 0.012c15.231 16.195-1.4751 4.6843 0 0zm2006.3 0.3086c5.9269 11.829-5.8655 2.4287 0 0zm-2928.5 0.01c0.34193 0.43378-0.2272 0.13726 0 0zm2871.4 0.2031c1.6396 0.75323-0.8968 5.1616 0 0zm-1084.5 0.1602c44.006 67.721 5.8885 24.892 0 0zm-1087.6 0.09c22.114 43.738 3.0257 6.9982 0 0zm-389.65 0.039c0.26433 5.8745-2.0346 0.50761 0 0zm2052.8 0.1289c23.443 20.306 11.37 40.201 0 0zm-1919 0.062c9.4372 15.313-0.92894 31.985 0 0zm-26.219 0.2695c14.663 19.955-0.71714 18.986 0 0zm-55.461 0.1172c17.236 16.643-13.256 18.275 0 0zm963.95 0.1797c2.2669 2.0728-5.2421 7.4289 0 0zm251.61 0.1914c23.379 64.147-5.4129-19.223-2.4492 57.242-4.2305-25.953 0.4284-70.538-6.803-39.23l3.6484-7.6133 5.6016-10.398zm1131.4 0.039c3.0313 10.276-5.5747 1.2357 0 0zm-100.81 0.043c11.889 14.003-12.297 13.883 0 0zm-627.77 0.078c8.9518 11.819-15.754-3.0074 0 0zm-1637.6 0.02c2.8966 2.2701-0.6188 5.3906 0 0zm458.72 0.1094c9.0963 46.309-2.1252 12.679 0 0zm54.609 0.4414c5.0041 8.2265-2.5716 2.3298 0 0zm-721.67 0.1601c3.73 3.3766 4.315 9.3329 0 0zm2611.1 0.039c9.8145 10.539-4.8909 20.02 0 0zm-1825.6 0.2695c15.661 18.232-8.1304 16.972 0 0zm814.53 0.1211c14.125 13.82-1.4839 22.293 0 0zm-1614.3 0.1289c5.8273 26.498-8.2105 8.0226 0 0zm1565.8 0.2422c3.5943 27.334-5.1656 20.379 0 0zm-852.81 0.1875c4.0975 1.3862-2.6453 9.8814 0 0zm576.46 0.2227c1.3026 0.69964-0.436 5.1349 0 0zm874.95 0.07c9.8151 6.1688-4.5286 23.776 0 0zm-1436.4 0.4101c5.4732 7.0773-4.5081 9.3038 0 0zm-282.12 0.066c0.24917 0.81021-0.65001 0.0264 0 0zm2410.1 0.1133c4.4158 3.2195-1.6331 3.9742 0 0zm-123.71 0.2695c20.316 53.511-2.224 38.351 0 0zm-496.52 0.1172c4.4073 27.309-8.3412 41.959 0 0zm-1265 0.293c7.3158 19.987-5.3325 6.3654 0 0zm-1077.5 0.6094c9.5755 3.5325-2.9396 24.138 0 0zm1490.5 0c26.242 13.415-34.669 59.281 0 0zm1411.7 0.078c9.4587 13.693-2.2066 11.115 0 0zm-2300.5 0.1211c1.7039 2.6731-6.1523 5.3822 0 0zm-391.92 0.1094c0.1513 0.246-0.0885 0.0701 0 0zm332.49 0c9.0711 6.4982-17.192 14.06 0 0zm2110.2 0.051c9.3426 2.4649-3.2077 24.777 0 0zm-2122.4 0.02c7.1874 2.3232-5.6053 13.025 0 0zm2255.7 0.031c15.325 10.786 4.1329 18.755 0 0zm-2475.4 0.2305c-2.8424 25.125-15.391 21.198 0 0zm2387.9 0.059c4.934 10.966-5.5093 1.906 0 0zm-2928.8 0.09c37.58 36.886 2.592 44.868 0 0zm1960.4 0.02c31.848 36.573 17.964 30.083 0 0zm-1173.5 0.0593c13.378 10.793-1.4147 8.8456 0 0zm1609.7 0.01c9.6657 23.347-20.487-3.0859 0 0zm351.39 0.1992c14.902 15.079-13.445 39.746 0 0zm-2570.1 0.1211c16.075 10.41-2.186 45.527 0 0zm1823.9 0.4492c18.148 48.568-17.8 62.524 0 0zm1224.4 0.3008c8.3181 31.518-13.831 3.8803 0 0zm-444.38 0.082c25.429 39.162-17.687 52.319 0 0zm-2159.2 0.059c24.906 72.617-8.8966 13.071-8.0744 15.781l8.0742-15.781zm1075.4 0.09c1.4302 23.974-5.6867 2.7976 0 0zm-391.11 0.1015c2.8934 8.966-4.6601 1.4435 0 0zm1352.2 0.059c18.935 18.922-6.6516 31.531 0 0zm30.75 0.051c1.5359 1.6259-0.2969 10.856 0 0zm-1857.8 0.027c3.0681 8.1725-4.4821 0.49875 0 0zm2154.7 0.3204c14.756 7.7368 5.6397 21.814 0 0zm107.22 0.1406c4.5333 5.7644-2.3041 11.123 0 0zm-2893.9 0.1094c12.549 20.269-6.3359 5.8813 0 0zm1403.7 0.1718c4.0071 6.6648-2.7407 11.143 0 0zm-1257.6 0.3477c4.5523 3.4263-3.3653 7.677 0 0zm2658.3 0.1328c2.3943 2.2206-0.8571 1.0207 0 0zm187.77 0.039c12.5 21.132-9.3338 21.268 0 0zm-892.14 0.078c9.1363 21.024 4.8571 38.507 0 0zm-2238.2 0.4101c1.3652 6e-3 0.38203 3.474 0 0zm2078.1 0.062c47.394 69.018-20.799-6.525 0 0zm-1297.7 0.039c7.2369 12.978-10.885 19.107 0 0zm304.4 0.3086c0.4298 0.86571-0.7524 0.8156 0 0zm1887.5 0.012c2.9124 0.062 0.8297 14.151 0 0zm-656.8 0.6094c7.7556 10.88-4.0842 14.933 0 0zm-111.01 0.1719c3.8422 45.735-4.6477 11.046 0 0zm893.22 0.09c1.9795 0.61871 1.7293 11.683 0 0zm-2754 0.01c4.2547 6.4438 12.884 30.901 0 0zm-116.72 0.1797c6.3353 1.4764-0.21588 15.585 0 0zm486.83 0.2305c16.146 22.493-17.703 13.857 0 0zm2042.7 0.09c29.545 43.727-36.916 13.519 0 0zm-859.96 0.039c55.814 86.986 34.466 70.107 11.289 37.852-7.9059-5.4332-18.606-25.448-11.289-37.852zm-1610.8 0.332c8.7589 37.36 0.53754 53.222 0 0zm2622.8 0.1289c32.292 36.675 8.5231 39.932 0 0zm-2305.8 0.1211c4.5635 2.9121-3.2868 17.51 0 0zm2198.8 0.1602c6.7763 27.83-8.8329 25.028 0 0zm-2799.4 0.01c24.206 22.563 4.3386 32.598 0 0zm2770 0.3633c26.089 17.565-5.9379 42.201 0 0zm-2790.8 0.457c5.0511 1.6052 1.2019 11.379 0 0zm2851.1 0.1211c24.618 26.45-2.8654 10.63 0 0zm-776.16 0.1094c11.33 14.497-9.6179 8.0861 0 0zm642.17 0.02c7.7636 19.806-11.766 3.2762 0 0zm-2359.7 0.043c3.1342 10.48-3.2865 4.2617 0 0zm2175.2 0.1367c27.56 54.766-10.596 26.004 0 0zm343.25 0.2734c1.2501 3.8628-2.1532 1.1922 0 0zm-363.78 0.3477c7.9973 6.7697-5.7109 11.515 0 0zm-41.52 0.4609c8.4914-2.6708 0.9138 14.733 0 0zm-1570.3 0.5586c2.2797 2.7824 1.2351 4.0535 0 0zm-138.77 0.043c3.6596 8.9217-4.384 4.1196 0 0zm339.67 0.098c2.9362 8.9939-6.1314 7.0082 0 0zm-562.28 0.211c0.74025 1.3683-0.92571 0.16236 0 0zm1867.7 0.051c3.3071 5.6927-0.8503 4.925 0 0zm231.21 0.047c30.778 57.97-26.241 35.147 0 0zm-2600.9 0.3907c2.4182 3.6868-0.78139 0.9689 0 0zm2924.4 0.2812c20.016 11.763-2.7244 7.4513 0 0zm88.473 0.5781c14.731 15.502-6.0676 20.976 0 0zm-2345.6 0.2422c10.768 13.562-5.7627 10.293 0 0zm-698.52 0.059c19.136 31.992 2.5948 31.508 0 0zm1896.2 0.043c15.582 5.8178-9.8688 41.728 0 0zm245.03 0.019c12.905 2.9416 11.461 16.031 0 0zm948.34 0.027c11.508 17.571-2.6703 6.1796 0 0zm-265.54 0.062c24.746-5.3734-10.381 48.795 0 0zm49.328 0.539c3.954 4.962-2.1992 3.3695 0 0zm-307.73 0.1485c2.7001 2.3307-0.4083 1.0254 0 0zm-788.71 0.09c30.532 43.677 3.3276 31.587 0 0zm669.14 0.062c7.0354 7.2989-1.7823 2.6632 0 0zm-55.973 0.2187c2.8423 19.401-12.31-3.8506 0 0zm-1559.7 0.2696c22.164 9.0065-9.9277 37.354 0 0zm-415.07 0.09c9.7757 10.73-4.7251 19.524 0 0zm1229.9 0.1719c4.6388 13.973-8.0952 20.863 0 0zm652.49 0.051c13.619 24.571-7.8515-0.31712 0 0zm502.88 0.01c11.895 13.724-7.7187 9.96 0 0zm-727.73 0.051c12.184 15.69-5.0744 10.399 0 0zm493.21 0.1914c14.301 16.802 2.0344 13.219 0 0zm644.61 0.1992c14.539 14.468-5.9601 28.937 0 0zm-812.23 0.051c6.5622 8.6056-3.5559 4.7461 0 0zm341.43 0.1094c5.4744 4.4532-1.104 10.137 0 0zm-530.51 0.1406c14.433-1.1737-0.4601 18.951 0 0zm-1415.4 0.09c6.4639 12.582-6.5738 2.5242 0 0zm1773.1 0.2071c11.671-0.17319 6.111 21.983 0 0zm-536.05 0.2929c14.097 46.789-14.194 16.089 0 0zm-1728 0.01c10.106 20.382 0.79769 14.303 0 0zm50.477 0.02c6.0246 10.916-1.7236 3.0548 0 0zm365.41 0.3203c19.763 23.142-9.8066 9.9324 0 0zm-475.95 0.1797c0.58476 3.053-1.5408 4.1953 0 0zm-0.80078 1.4922c-0.0468-0.17608-0.0578 0.0154 0 0zm1294.2-1.3907c29.416 39.373-21.621 25.519 0 0zm529.15 0.01c9.1776 8.3637-7.6974 11.33 0 0zm395.12 0.1797c9.236 12.937-5.2637 6.3555 0 0zm198.4 0.211c41.436 25.164 6.8491 33.961 0 0zm-389.17 0.2617c8.0457 12.369 0.6442 14.093 0 0zm-583.06 0.3789c5.8551 20.195-17.255 3.9178 0 0zm72.07 0.031c18.248 22.918 0.6596 43.654 0 0zm-204.56 0.059c3.503 13.928-5.0914 25.703 0 0zm1321.8 0.02c6.5232 9.704-1.5438 3.1222 0 0zm-545.82 0.1601c0.087 0.24352-0.038 0.0415 0 0zm279.24 0.211c0.4873 0.93777-0.4958 0.20819 0 0zm-1931.1 0.078c1.998 0.54688-1.0736 4.5883 0 0zm-779.63 0.1523c51.394 54.223 23.958 64.128 0 0zm1815.9 0.3399c11.326 11.151-16.153 18.014 0 0zm1027.1 0.2304c7.8965 7.3684-2.546 3.3535 0 0zm-591.17 0.07c11.763 4.3567-0.7901 10.718 0 0zm-2068.6 0.289c16.638 22.36-6.9523 7.253 0 0zm2761.7 0.019c9.2194 7.576-4.5883 3.9677 0 0zm-2108.4 0.2813c4.9584 2.1085-6.7828 10.999 0 0zm1970.2 0.3008c16.165 22.364-11.664 19.129 0 0zm250.46 0.2969c32.346 23.8-0.5404 20.76 0 0zm-1891.8 0.2109c2.2687-0.44167 1.2208 3.3093 0 0zm2026.5 0.1484c4.4549 2.0868 7.4021 21.247 0 0zm-694.19 0.2305c10.309 10.024-18.198 32.136 0 0zm-1388.9 0.1406c4.1187 10.543-4.3553 7.1719 0 0zm1435.5 0.07c2.7134 2.9214-2.725 4.625 0 0zm297.47 0.1797c3.5932 1.1482-1.1223 13.409 0 0zm123.94 0.1719c2.3355 2.7744-3.3374 4.3814 0 0zm278.27 0.078c5.5825 1.1239-1.4911 14.123 0 0zm-99.812 0.1406c14.089 16.233-1.7565 24.906 0 0zm-433.71 0.5c2.3459 1.9764-0.3583 8.7824 0 0zm-1544.4 0.02c1.493-0.0176-0.3279 1.9985 0 0zm1004.1 0.051c17.629 14.463-8.2277 8.6766 0 0zm-1041.9 0.019c4.1251 6.4563-5.1969 8.8475 0 0zm1714.8 0.1406c13.432 8.9785 4.9733 26.191 0 0zm-678.63 0.4492c9.7574 6.0352-13.263 17.956 0 0zm335.27 0.1407c1.16 0.21323-0.7023 2.4361 0 0zm-535.95 0.059c20.676 15.373-0.5432 27.252 0 0zm1150.9 0.019c2.5642 2.6169-0.686 5.1541 0 0zm-2553.9 0.2812c5.3834 10.187-4.891 8.5496 0 0zm1001.4 0.051c0.409 1.3996-0.4717 0.21739 0 0zm1336 0.3594c15.34 16.537-15.104 23.573 0 0zm-1105.1 0.1914c5.4257 3.9472-10.255 17.924 0 0zm997.06 0.1484c0.3285 3.3467-0.7757 0.55241 0 0zm-2027.8 0.1094c0.81682 1.3877-1.5593 5.45 0 0zm1989.2 0.07c2.4222 0.1033 0.3824 6.1854 0 0zm-596.78 0.051c9.6666 44.7-38.352 11.68 0 0zm-1242.5 0.051c3.9409 6.2989 0.793 12.459 0 0zm1805.3 0.059c2.0884 4.0287-2.5004 0.34212 0 0zm-64.898 0.1015c0.6402 0.49601-0.3273 2.6072 0 0zm-2418.5 0.25c2.5515 0.50206-0.63088 4.8729 0 0zm2709.6 0.027c15.347 11.716-3.0728 5.2014 0 0zm-1092.4 0.4579c17.723 26.772-5.842 65.49 0 0zm991.36 0.2774c-0.01 0.10771 0.226 0.2672 0 0zm-1736.1 0.012c1.7234 5.7176-1.7799 1.067 0 0zm-1038 0.3008c28.899 30.448-5.2729 11.809 0 0zm2748.6 0.1797c4.0221 2.7113-1.2073 6.742 0 0zm25.949 0.1093c15.893 20.487-3.9575 20.571 0 0zm-926.75 0.25c11.46 21.418-4.1772 19.923 0 0zm-133.95 0.25c-2.7024 20.298-24.307 41.063 0 0zm49.918 0.039c7.9341 23.843-12.285 3.7719 0 0zm1029.5 0.3203c10.356 2.8183 16.778 26.494 0 0zm-693.72 0.012c22.419 18.491-16.272 29.599 0 0zm-1648.1 0.168c1.7422 9.0716-9.1465 5.9016 0 0zm1854.4 0.1406c1.0666 2.2069-0.8371 0.32595 0 0zm-2316.9 0.051c31.891 28.595 11.709 57.063 0 0zm2885.6 0.078c3.768 2.9207 1.4847 8.6962 0 0zm-762.61 0.6211c0.8774 1.1052-0.7022 2.134 0 0zm-369.18 0.6602c9.9297 7.6182-12.226 14.151 0 0zm1426.9 0.02c5.0802 9.981-3.0807 5.514 0 0zm-1131.4 0.07c11.036 7.3026-4.6218 6.4504 0 0zm778.94 0.2305c13.11 17.721-3.6427 17.191 0 0zm123.63 0.02c10.021 26.886-15.808 3.3367 0 0zm-828.34 0.3086c0.6583 0.84408-0.2442 0.29276 0 0zm1155.8 0.2617c-8.4984 30.282 1.754 0.49394 0 0zm-2210 0.051c2.083 0.54237-0.1764 6.2428 0 0zm4.7383 0.1211c2.1938 1.7028 0.011 14.006 0 0zm1779.3 0.3672c2.9105 2.8404-0.8209 1.1737 0 0zm-198.82 0.012c11.446 7.1428 2.2566 56.106 0 0zm233.07 0.1094c8.4272 8.7065-0.759 5.9436 0 0zm-1328.5 0.2891c2.8296 1.2575-0.041 10.078 0 0zm355.07 0.8203c28.673 20.182-5.2538 19.98 0 0zm32.008 0.3594c17.143 27.198-16.163 8.7857 0 0zm59.191 0.3398c4.5585 9.494-1.1396 2.1319 0 0zm-1239.9 0.082c0.82842 0.0504-0.14598 1.5968 0 0zm24.848 0.1992c9.5408 5.8193-22.822 22.966 0 0zm1020 0.02c13.392 19.837 6.1352 40.556 0 0zm849.79 0.3884c0.8202 0.28905 0.5695 3.2452 0 0zm-610.91 0.07c7.7947 0.0761-5.1928 9.1137 0 0zm472.42 0.4102c2.9919 5.8279-0.872 1.3961 0 0zm-1165.7 0.07c22.859 33.466-11.618 42.664 0 0zm1348.1 0.1601c29.983 27.139-0.3749 21.063 0 0zm210.5 0.098c3.8494 4.7786-0.9281 2.1568 0 0zm-861.97 0.082c4.166 2.9229-2.6931 0.95897 0 0zm-901.25 0.3711c3.0864 5.0049-4.4299 6.3078 0 0zm900.44 0.4102c26.59 18.564-33.414 50.365 0 0zm714.46 0.2187c26.468 32.169 2.1702 25.2 0 0zm117.51 0.2383c13.104 14.084-17.712 26.413 0 0zm-282.1 0.2422c9.954 6.9577-2.0511 20.815 0 0zm753.64 0.051c4.0514 29.236-20.514 34.648 0 0zm-352.5 0.1172c28.412 13.128-5.5553 44.249 0 0zm-458.69 0.1406c2.0926 1.3499-3.4076 2.9433 0 0zm-323.79 0.25c0.7211 0.80752-0.342 0.0227 0 0zm-1319.8 0.7187c24.302 21.584-13.767 8.3488 0 0zm1877.1 0.1407c6.9507 14.235-4.4391 2.8654 0 0zm-868.95 0c10.025 5.2909 0.2682 15.468 0 0zm1037.1 0.07c13.611 17.964-0.073 3.5438 0 0zm-2877.5 0.2187c12.119 12.524-0.0994 49.389 0 0zm2476.5 0.051c5.0428 7.0601-6.5876 2.5119 0 0zm-442.29 0.1016c0.6907 0.66734-1.4608 2.4443 0 0zm-46.719 0.1211c2.4043-0.60802 1.5083 5.2815 0 0zm592.66 0.3986c7.254 16.339-7.7891 2.4057 0 0zm-1953.1 0.1289c4.8896-0.77694 1.0226 8.1939 0 0zm378.8 0.07c3.8408 1.5676-3.0372 10.057 0 0zm1547 0c0.8674 3.45-1.3207 0.48062 0 0zm-850.95 0.9492c8.5302 7.2225-4.0925 3.508 0 0zm350.48 0c10.05 9.4461-14.678 30.921 0 0zm-48.141 0.024c12.455 2.3468-5.6869 19.179 0 0zm-920.59 0.3164c1.0849 4.6931-1.7774 0.62995 0 0zm-1230.4 0.1133c16.739 12.393 10.403 32.203 0 0zm1880.9 0.1875c15.57 4.4206 9.6646 67.767 0 0zm3.4336 9.789-0.043-0.047zm1262.3-9.7383c2.4293 1.288-0.6264 7.4359 0 0zm-1204.4 0.07c30.964 60.954-8.8912-13.578 15.808 37.101-15.919-27.429-18.599 0.66943-15.808-37.101zm876.97 0.2187c22.452 25.385-6.8742 8.1774 0 0zm111.33 0.012c10.672 7.7365-11.26 30.023 0 0zm-845.73 0.051c10.343 10.4 3.3873 58.526 0 0zm50.609 0.3672c3.2762 27.133-22.935 37.705 0 0zm923.78 0.1406c3.0671 0.89575 2.6712 10.852 0 0zm-1233 0.25c2.9401 1.9902-6.3236 5.5627 0 0zm1087.4 0.1289c16.083 13.949-6.4522 6.231 0 0zm233.98 0.3633c0.5256 0.0236-3e-4 1.2278 0 0zm-1241 0.078c8.5755 0.85035 4.7487 18.789 0 0zm742.53 0.1797c12.004 11.138-3.5127 14.401 0 0zm-656.22 0.8203c24.996 24.145-2.3789 11.512 0 0zm190.29 0.082c17.867 18.611-13.739 19.407 0 0zm18.852 0.059c14.856 23.713 9.7754 18.269-1.1406 15.48zm-354.77 0.1914c11.425 7.6242-16.324 20.801 0 0zm-232.2 0.1367c6.8561-3.1772 3.2468 16.41 0 0zm236.04 0.4609c1.2347 1.054-0.5416 0.42046 0 0zm171.28 0.6016c12.729 12.898-3.1112 32.031 0 0zm-19.168 0.5078c6.4235 4.6723-0.079 11.115 0 0zm-651.41 0.2617c4.7404 18.71-15.202 0.58028 0 0zm-1144.4 0.4805c21.822 30.127 4.6102 30.797 0 0zm410.52 0.1484c0.64059 8.194-8.1346-2.236 0 0zm-594.32 0.1406c9.0871 9.4805 3.2896 14.298 0 0zm945.78 0.082c9.2702 29.603-8.3683 19.32 0 0zm880.63 0.1094c9.0412 17.296-11.443 28.479 0 0zm768.3 0.01c1.2927 0.47955-1.7741 1.7507 0 0zm-575.33 0.1406c14.541 16.982-2.1953 12.457 0 0zm891.67 0.3984c8.2792 3.7469-8.7286 15.372 0 0zm-771.8 0.2227c9.5816-0.90688-2.795 21.511 0 0zm1185.2 0.4609c8.9337 10.285-8.1326 33.807 0 0zm-3252 0.5078c7.7109 0.25116 4.8058 23.71 0 0zm2940.3 0.031c5.5308 8.1538 0.073 7.5135 0 0zm-1046.5 0.4883c3.4765 1.2181 0.2431 11.521 0 0zm45.629 0.1093c0.57 0.68925 0.5761 4.2888 0 0zm585 0.2422c10.866 14.086-11.211 8.2825 0 0zm-387.64 0.078c4.9696 23.136-13.692-1.3288 0 0zm-126.53 0.7929c6.8241 8.1202-2.1607 2.9754 0 0zm-193.71 0.1094c13.09 26.392 5.2844 25.64 0 0zm959.33 0.078c3.7626 14.843-6.2781 11.468 0 0zm-86.812 0.3008c17.402 11.557-1.0942 13.136 0 0zm-629.49 0.078c1.5274 2.327-1.7852 0.5735 0 0zm71.77 0.024c14.322 23.207-17.938-2.2327 0 0zm730.44 0.059c8.6716 3.6903-2.7402 5.6747 0 0zm-1103.9 0.1484c16.751 19.561-1.086 34.791 0 0zm574.72 0.3711c5.1382 5.4365-0.057 7.2571 0 0zm225.96 0.6211c15.436 14.487-5.0329 5.8236 0 0zm-538.28 0.1797c3.0956 7.6714-3.6111 1.1231 0 0zm622.5 0.3984c11.429 20.651 0.066 27.325 0 0zm-2463.1 0.6524c13.305-0.82531-0.86068 19.247 0 0zm1514.9 0.3281c1.3136 3.0658-2.6778 3.3391 0 0zm1166.3 0.019c4.5882 1.8136 0.9441 8.5888 0 0zm-306.7 0.5703c2.8539 2.2888-0.4478 3.9849 0 0zm190.96 0.25c1.2673 1.9428-0.3356 0.60799 0 0zm-653.17 0.051c1.045 0.35067-0.4174 3.1113 0 0zm-194.06 0.25c19.593 31.934 16.218 65.358 0 0zm159.06 0.3984c10.022 10.839-4.652 10.76 0 0zm-1884 0.2032c0.49307 0.28968-0.41722 1.6313 0 0zm3141.1 0.5898c13.607 24.01-12.508 60.236 0 0zm-1544.9 0.3203c3.3127-0.20146 0.7742 5.2007 0 0zm1486.6 0.1094c6.0954-0.1917-9.1918 17.082 0 0zm-415.61 0.07c5.3625 14.784-9.9032 2.6087 0 0zm-1266 0.1172c4.7426 10.412-1.7843 8.0543 0 0zm420.27 0.019c20.801 5.6076-11.55 45.965 0 0zm18.199 0.3516c0.7421 0.0123-0.1494 0.83988 0 0zm541.84 0.1914c0.4155 0.13492-0.228 1.0731 0 0zm150.62 0.207c8.3836 10.053-4.4032 6.4627 0 0zm112.02 0.2617c4.3039 1.5182 1.4016 12.363 0 0zm-260.1 0.1407c12.685 10.539 8.1712 23.524 0 0zm-647.6 0.1484c0.5184 0.22102-0.1019 1.7118 0 0zm41.258 0.4922c7.436 1.9073 8.3745 21.077 0 0zm-1422.9 0.707c4.3885 13.33-4.7377 2.3635 0 0zm1554.6 0.043c11.903 6.3164 4.9779 12.737 0 0zm22.539 0.1992c16.239 4.0616 0.029 22.45 0 0zm-1858.7 0.3594c6.8475 4.1649-6.6479 8.5108 0 0zm1768.6 0.832c5.7135 10.989-0.4682 1.4277 0 0zm-46.25 0.09c21.591 20.937-8.7342 9.8475 0 0zm587.79 0.02c5.5279 6.0314-1.6241 2.2235 0 0zm-779.96 0.4492c14.414 8.3808-2.6878 11.305 0 0zm366.7 0.2813c2.5747 12.145-2.5254 4.1146 0 0zm548.41 0.09c6.3047 2.0156 0.3438 10.946 0 0zm-1418.1 0.457c1.0467 11.078-3.4803-0.37867 0 0zm-941.94 0.082c2.8403 12.003-8.2607 3.7401 0 0zm1750 0.7671c18.501 17.072-3.8194 18.596 0 0zm-354.86 0.1484c40.472 4.0796-12.973 47.159 0 0zm-452.21 0.1914c8.3189 16.18-6.3038 33.717 0 0zm836.86 0.051c24.852 36.505 5.7426 4.9764 0 0zm-406.01 0.2383c6.616 9.3634-6.7788 5.8083 0 0zm325.89 0.3203c4.5983 11.573-6.0968 2.557 0 0zm561.6 0.9414c9.1259 9.7529-9.3665 10.409 0 0zm-403.96 0.6211c0.6067 2.0399-0.8393 0.56205 0 0zm-612.41 0.059c1.1594 2.9563-0.2662 2.6709 0 0zm-1397.9 0.01c1.5144 1.6426-0.42496 0.64344 0 0zm1902.2 0.4219c4.7408 9.6904-4.8897 2.3075 0 0zm-1902.2 0.02c14.215 16.363-3.4332 17.664 0 0zm3262 0.082c7.898 17.356-41.981 69.72-2.1914 23.09-7.272 54.07 9.3738-5.8335 2.1914-23.09zm-2398.6 0.4882c6.0613 1.9318-4.7932 12.81 0 0zm626.98 0.3711c-2.0914 19.365-14.192 1.443 0 0zm-797.27 0.078c7.6436 5.4635-2.2366 16.42 0 0zm-81.5 0.1914c4.8914 1.2261-2.1448 17.255 0 0zm843.24 1.039c5.5273 9.2221-4.8131 15.971 0 0zm510.34 0.6289c2.6186 8.9166-2.6691 1.3938 0 0zm1040.7 0.024c5.6056 2.0181-4.2479 9.3441 0 0zm-2630.1 0.3476c6.4808 3.5149-4.1926 8.6891 0 0zm1232.3 0.2618c15.278 7.0991-2.2447 16.41 0 0zm270.45 0.09c4.1515 4.1769-3.3843 18.976 0 0zm-2002.9 0c11.687 17.106-1.7629 10.595 0 0zm848.89 0.098c2.4434-1.4215 1.1642 4.042 0 0zm-373.31 0.019c9.3832-3.8158-1.0953 16.859 0 0zm2865.7 0.1914c-13.909 37.059-5.6752 3.6627 0 0zm-131.42 0.09c11.466 20.849-18.436 21.596 0 0zm-58.801 0.4102c7.2688 9.4558-1.5973 6.2123 0 0zm-2145 0.1601c10.104-0.35698-3.9504 9.3432 0 0zm-333.95 0.2188c-0.32605 9.8443-10.815-4.4487 0 0zm802.36 0.6211c2.931-1.1997 0.065 1.8455 0 0zm25.551 0.1016c1.7312 5.3334-4.345-1.2072 0 0zm-23.262 0c15.824 2.3921-13.732 9.3066 0 0zm-235.36 0.3476c7.4891 21.592-10.047-1.3622 0 0zm1592.3 0.3516c12.562 6.1758-3.9177 11.988 0 0zm-185.57 0.4101c3.4407 4.4297-5.354 12.467 0 0zm-957.59 0.5508c32.585 26.507-29.794 49.428 0 0zm17.633 0.3086c7.6522 4.0868 0.048 6.5831 0 0zm205.88 0.2617c9.9633 6.971-0.8845 10.054 0 0zm-306.41 0.059c9.6771 7.6154-7.1222 7.0745 0 0zm-733.56 0.6016c6.8318 0.24484 2.5913 11.28 0 0zm-992.55 0.074c19.172 17.842-2.9433 7.8876 0 0zm830.71 0.3516c1.5605 2.4618-0.9292 0.63464 0 0zm1081.7 0.027c9.3296 6.4306 4.2912 38.65 0 0zm15.41 0.7305c9.8953 11.766-5.8628 3.6478 0 0zm1022.9 0.1797c1.7161 1.5828-0.5267 0.61248 0 0zm-1226.4 0.4492c9.5487 11.761-8.7872 7.1962 0 0zm769.19 0.2812c2.8499 5.4619-7.6774 7.595 0 0zm-2250.6 0.3399c7.1983 4.9087-0.0195 2.4181 0 0zm1586.4 0.5508c0.1682 1.2999-0.7655 0.0624 0 0zm180.71 0.2304c8.0382 12.222-2.1189 3.3227 0 0zm-181 0.168c-0.01 0.0396 0.027-0.0333 0 0zm1422.5 0.3906c2.8838 7.2165-7.2739 7.2964 0 0zm-1664.2 0.4805c21.715 42.492-0.2393 19.043 0 0zm778.53 0.3906c10.297 29.849-24.114-4.8435 0 0zm-1019.4 0.2386c13.135 19.911-9.9788 15.02 0 0zm436.29 0.1016c11.162 15.53-8.3783 8.2511 0 0zm383.16 0.3007c8.9827 8.4906 0.534 8.991 0 0zm-1921.3 0c6.3902-0.77151 2.5189 14.457 0 0zm1617.2 0.3477c5.0906 13.358-7.6401 4.2464 0 0zm-165.34 0.031c5.6285 5.9445-2.7084 14.07 0 0zm-199.09 0.2305c2.5093-1e-3 -0.8042 2.5421 0 0zm21.09 0.1094c1.1695 3.0532-1.3032 1.0145 0 0zm-558.55 0.09c2.9781 2.2095-4.2762 9.1812 0 0zm0.2774 0.3203c5.8194 1.244-4.3878 7.1205 0 0zm800.28 0.1797c1.7172 3.4579-1.7602 0.64534 0 0zm-569.89 0.5586c3.534 1.4008-0.9192 14.516 0 0zm2061.4 0.4922c4.3236 20.355-8.8017 5.3392 0 0zm-1387.7 0.7383c6.3696 7.1382-0.2926 20.019 0 0zm-259.75 0.4219c1.3899-0.0948 0.2175 1.784 0 0zm739.62 0.1484c7.9988 21.058-4.8143 2.1412 0 0zm-737.52 0.082c7.0641-2.4334 3.3738 10.767 0 0zm-3.1875 0.1485c2.7769 3.6584-1.5449 6.0204 0 0zm-640.77 0.09c9.3429 6.138-9.2635 8.0587 0 0zm956.77 0.211c3.1935 1.8792 2.9761 10.17 0 0zm1584.1 0.1992c0.5463 6.7044-1.9319 0.90386 0 0zm-1777.4 0.2109c6.3463-2.9119 11.233 14.802 0 0zm-727.97 0.059c0.9535 0.65966 1.2527 3.8483 0 0zm606.47 0.4024c6.9051 4.9859-0.186 13.766 0 0zm539.47 0.25c1.0671 0.83598-0.6035 4.371 0 0zm349.64 0.4296c1.1217 3.0429-2.0028 1.4151 0 0zm-829.74 0.1407c2.7896-1.5774 0.8144 2.609 0 0zm68.16 0.1679c3.1214-1.4959 1.0563 5.5465 0 0zm-66.52 0.012c7.613-2.4438 4.5908 11.14 0 0zm400.03 0.25c1.5092 3.254-0.7941 0.83519 0 0zm-1105.6 0.289c7.7944 3.745-3.7024 8.1341 0 0zm5.3907 0.4805c0.387 0.0693-0.2708 0.49075 0 0zm-5.9102 0.078c1.5711 5.7487-2.6259 0.86201 0 0zm2364.9 0.031c2.9629 0.75547 0.1937 2.5083 0 0zm-2358.8 0.039c6.5937 3.5323-1.2664 16.329 0 0zm756.4 0.2305c16.202 4.4642-5.9538 25.128 0 0zm-756.83 0.1601c3.8227 8.5019-6.4229 0.68857 0 0zm1393.4 0.2188c11.072 7.301-1.4019 4.3152 0 0zm-602.64 0.5508c6.3909 7.0256-7.0309 9.1714 0 0zm166.43 0.09c21.915 20.897-3.4602 15.158 0 0zm-139.37 0.1524c3.5591-0.42324 2.6188 9.2802 0 0zm-820.03 1.1367c7.9873 8.195-6.2199 6.8017 0 0zm-986.6 0.6328c14.408 6.8902 8.6675 24.31 0 0zm1941.6 0.5391c2.7001 6.4661-1.2224 5.2725 0 0zm229.3 0.031c3.2822 3.7052-0.7622 1.4254 0 0zm15.539 0.1094c4.3996 5.7839-1.4577 1.9008 0 0zm-119.42 0.5976c1.999 4.6397-1.5764 0.99934 0 0zm-1974.9 0.7305c10.513 8.3328-0.72058 8.7687 0 0zm1751.1 0.1016c0.399 0.36487-1.0696 0.95405 0 0zm-854.12 0.2578c6.6861 6.0415-1.6561 12.613 0 0zm-593.48 0.07c3.0292-1.5579 0.76942 4.0923 0 0zm2877.2 0.3398c5.5634 2.1902-5.4404 15.756 0 0zm-1429.1 0.3321c1.8879 20.395-16.136 19.344 0 0zm540.29 0.051c12.541 7.1088 0.6432 13.51 0 0zm-824.83 1.3476c0.5333-0.26645-0.028 0.69965 0 0zm-422.91 0.051c2.8977 16.14-3.3233 3.7315 0 0zm806.9 1.0586c7.274 10.268-2.6305 2.9928 0 0zm-807.67 0.2734c2.8081 9.5731-2.7288 1.8717 0 0zm-345.61 1.1094c3.8728 5.7326-0.078 0.41834 0 0zm-834.99 0.207c-0.01231 0.0486 0.13358 0.0865 0 0zm0.04687 0.051c-6.5802 19.286 43.912 16.349 0 0zm19.664 0.2422c-0.0067 0.0303 0.05306 0.0489 0 0zm0.0195 0.027c-7.4946 18.753 39.229 16.166 0 0zm1517.7 0.07c5.4596 0.9211-0.3296 6.5259 0 0zm897.31 0.1718c5.0664 13.226-6.1605 3.6618 0 0zm-468.84 0.9688c1.463-0.7941 0.7223 2.7463 0 0zm338.84 0.4414c1.3349 8.9099-2.2331 1.777 0 0zm1188.1 0.1094c1.4049 3.7692-3.6615 3.9838 0 0zm-2953.5 1.7812c6.348 5.7402-4.5425 9.2808 0 0zm1195.2 0.7891c4.2003 3.4354 0 3.3617 0 0zm932.03 0.7578c1.9997-0.82183 0.2348 4.8859 0 0zm956.62 0.832c-15.092 6.6431-13.824 11.003 0 0zm-1958.2 0.2578c0.7958 2.8852-1.5796 1.0132 0 0zm97.469 0.2227c6.2727 6.5524-2.9701 2.6435 0 0zm-1185.5 0.051c4.2525-1.4969 1.2744 12.126 0 0zm1152.2 0.1172c4.7797-3.1202 10.136 12.994 0 0zm-317.2 0.1914c-3.7844 8.6853 18.371 8.1437 0 0zm2211.8 0.019c-20.641 8.1052 3.2511 8.6704 0 0zm-36.441 0.6211c-20.366 7.3186 2.6202 7.7989 0 0zm-1852.4 3.1094c0.4249 0.35133-0.1084 0.17188 0 0zm-1250.4 0.9414c1.0886 2.6473-1.3651 0.44341 0-2e-3"/>
</svg>
