<?xml version="1.0" encoding="UTF-8"?>
<svg width="3651.7" height="363.84" version="1.1" viewBox="0 0 3651.7 363.84" xmlns="http://www.w3.org/2000/svg">
 <path d="m2031.3 5.612e-5c0.025 0.044086 0.03-0.027247 0 0zm0.02 0.01c-14.15 37.78-37.518 186.68-59.41 83.004 31.319 103.84-2.0228 90.821-10.859-0.0628-12.079-8.4181-53.113-105.33-18.691-13.903 21.202 102.34-4.9903 46.934-22.078-26.079 15.01 73.542 19.383 119.95 1.3158 35.912-22.149-40.332 11.896-0.90035-4.6869 50.514-4.2288 75.713-20.197-83.478-12.961 27.742-5.7234-20.22-5.9893-20.629-10.73 4.5742 0.1504-84.299-5.5632-85.986-13.09-8.832-5.1623-82.883-40.454-12.83-28.88-30.488-14.909-66.288 3.1138 126.58-11.578 4.8709-14.298-73.345 5.7603 69.201-15.723-11.144 22.354 16.412 1.639 110.11-4.32 49.781-6.1136 100.12-16.365-32.558-20.16 31.999-20.632-48.473 9.0955 81.943-7.7387-1.3745-5.9956 87.101-9.3614-83.49-18.981 10.89-25.129-87.509 10.918 116.35-14.711-8.8946-15.561-44.358-1.1623 3.7208-12.377-16.038-9.0561 69.278-22.776-89.844-13.233 25.323 12.467 79.56-21.74 61.097-1.3399-7.0197-32.057 82.136-13.324-28.157-27.912 5.5564-13.575 85.395-30.391-35.218-27.616 60.819-16.312-26.034 19.15-102.11-10.902-29.812-9.0421-80.294-7.7862-63.371-29.192-2.5274 5.7349-70.284-24.436 48.801-10.764-64.775 24.999-139.66-20.694 20.342-10.424 70.744 3.4776-117.35-16.123-17.582-16.762 41.004-20.981-29.29-10.818-202.43-30.508-78.434-23.544-89.603 6.7776 61.85-19.41-39.727-19.188-54.503 6.2545-93.878-24.45-25.245-33.113 141.53-17.714 14.015-6.3256-31.355-24.03 60.614-36.738 129.37-9.7104 21.734-8.2612-1.6256-33.41 93.027-36.597 26.983-21.676 170.85 8.2047-209.32-15.766-44.754-0.3371 64.088-25.78-89.902-9.8433 23.047 10.156 42.436 2.6708 119.06 1.1094 33.672-26.391 89.927 2.0459-154.55-19.86-32.742-23.273-89.467 13.165 135.97-20.559-11.778 10.419-78.937-14.395 88.887-29.739-18.092-11.03-81.515 2.9608 185.03-6.7528 47.514-10.778 10.972-11.157-41.905-10.098 23.68-48.235-99.251-23.892 57.368-12.421 22.422-11.586-89.924-7.3207 28.671-21.02-43.79-32.464-119.99-12.465 116.63-5.3796 99.41-2.5165-58.768-24.231-146.13-40.852-57.121-3.6994-46.721-23.636 83.547-14.579-34.262-7.8161 27.468-13.919 139.38-10.93 46.051-24.328 24.358 30.216-92.565-11.352-15.816-7.7414-30.642-14.471 72.946-23.559 34.91 5.9139-42.967 33.124-146.04-0.3364-41.84-24.118 13.968 3.7566 74.086-19.707-1.0752 5.5796-108.07-9.5475 94.428-24.547 8.016 12.978 40.658 10.049 108.39-5.9827 14.612-2.119 125.91 7.3244-92.518-7.1796-27.126-14.947-75.529 1.4011 90.651-19.648-13.354-16.643-81.437-18.73 97.801-43.364 3.6231 25.334 58.608-2.6674 96.307 6.3594 30.375-26.915 94.427-32.629 49.689-22.719 7.6636 9.2288-47.387 48.566-160.01 3.9007-48.983-39.034 107.1 27.835-146.3-21.19 3.8815-34.928 130.42-4.1804-28.659 16.609-70.027-29.602 37.237-35.608 122.08-54.711 64.918 16.896 176.84-33.733-158.21-16.41-10.324 8.8955 78.626 3.9557 97.453-5.2383 8.2968 7.9819 187.88-24.265-161.29-35.18-30.566-4.3553-13.859-15.158 116.57-26.961 100.1 39.479-191.08-26.463 56.026-8.93-10.156 4.662-84.6-9.8138-54.638-11.102-44.812-7.3094-5.2579 12.054-69.064-16.207 6.2542-9.6174-16.014-2.4163 15.56-12.582-41.226-0.63634 35.158-36.061-66.63-6.1406 24.989 14.199 54.608-17.325 231.02-1.2264 78.711 4.8755-57.621-8.793-110.03-6.7657-17.89-25.41 134.66 0.5536-119.15-27.486 15.32-6.4373-45.979 6.2585-89.539 1.1914-86.371 26.009-89.205-44.206 118.29-10.897-14.025 37.448-129.08-18.544 45.71-25.548 54.345-17.693-43.774-10.143 117.82-20.914 22.875-14.824-29.902 23.258-128.52-7.6875-42.863-10.014-30.397-2.9913 95.447-15.071 14.673-10.243-42.164 44.149-131.14-6.2651-34.72-12.122-54.71-45.912-69.52-17.324-63.004 20.135 37.107-9.3163 66.217-10.429 73.233 22.514 53.526-1.8182 82.771 8.9914 24.2-25.21-3.7312-20.732 95.266-23.004-14.828-4.9742 71.47-11.184-51.455-12.332 14.175-3.5741-12.42-37.466-138.37-23.145-42.598 13.228 79.128-51.576-99.858-18.102 1.0898 14.527 47.921-29.694 121.32-15.82 31.215-29.522 129.46 11.19-69.431-3.1645-27.61-19.709 38.069-41.617 101.7-20.675 15.708 4.485-64.438-42.583 150.52-12.852 13.084-20.424 35.526-11.829-89.052-16.129 6.6664-25.377 42.46 34.98-224.08-9.0694-57.951-3.0443 67.835-15.894 34.851-25.372 86.684-23.929-42.854 12.196-154.12-19.066-67.637-11.406 71.282-16.788-20.774-41.852-71.77 3.1179 22.312 49.229 196.13 12.125 99.973-2.3458 70.588-27.288 52.634-6.9883-2.6953-14.161 37.692-24.003-20.507-21.059 5.9686-5.1304-35.851-8.1258 62.693-16.586-27.543-16.553-141.03-30.324 168.46-23.371 15.484 15.696-79.035-22.213 60.761-10.891-40.718 7.7652-166.18-15.288 205.41-16.933 59.144-13.046 77.426-20.047 59.725-8.9569-29.302-11.156 91.81-43.998-68.386-16.809 53.899-9.7952 44.962-15.838-114.86-13.269-8.1018-15.701-89.241-26.401-56.682-27.836-111.54-25.842-15.302-23.66 171.11-40.008 88.351-5.8004 115.66-15.112-112.33-18.249 20.641 6.5403 97.723-19.149-116.28-10.775-2.7936-13.904-29.846 16.738-117.19-10.113-34.137-43.067-121.52-17.252-7.0101-8.0936 60.875-28.595-127.18-4.0631 110.05-16.34-14.043-16.524 20.475 7.4564-45.878-14.883 5.8867-21.549-8.5752 16.374-107.47-7.7344-46.066 13.227-72.846 7.6368-93.822-6.6383-8.6607-3.0933 50.699-5.4515 124.23-3.5612 20.211-17.825 36.899 12.094-143.55-11.821-25.728-12.576 76.099 4.5155-57.732-10.625 11.071-25.238-79.333 8.7902 119.36-24.109-13.914 4.8175 56.993 8.3352 118.07-11.473 30.121-51.27-131.65-3.5577 3.3697 6.3403 60.973-23.552-62.863-79.269-160.36-28.012-34.47-7.0188 114.29-19.682-49.084-24.812 11.562-21.929-42.967-5.207 1.4223-22.711-41.914-8.4619 50.093-2.1307 141.45-13.113 39.008-5.8793-42.714-21.451-30.049-6.7578 36.961-19.567-51.19 7.6612 55.843-15.262-28.656-5.023-51.588-3.1137 209.69-3.0767 68.175 8.9369-87.285-22.663 60.319-10.962-44.253-5.9795-69.096-26.505 185.85-19.876 41.324-15.843-181.29-9.1268 171.06 8.2569 42.468 16.336-97.454-10.574 72.052 33.142 34.236-28.214-39.835 29.037 18.053 63.023-6.49 23.509 15.051 89.387 2.237 129.31 6.4922 7.8109-69.687-6.7845 25.896 53.668 0 67.203 0.6223 147.17-0.92477 201.05 0 101.34 10.301 71.002-22.106 114.48 0 15.682-46.273 11.515 19.355 78.592 0 68.078-4.8504 45.804-3.4662 115.09 0-3.6394-48.208 3.7092 19.983 32.729 0 39.52-5.1061 94.824 9.8988 125.13-6.8906-13.025 24.141 38.507 27.595 65.517 5.4301 35.987-2.9372 31.253 3.2932 59.512-4.4024 26.992 14.873 81.16 1.0852 117.74 5.8633 54.487-11.944 66.083 21.644 64.97-26.02-14.168 25.347 39.085 31.207 86.071 26.019 12.09 0.24598 42.634 4.2356 33.619-40.93-10.128 64.22 50.958 33.232 95.786 40.93 184.19-1.5337 375.55 3.064 555.27-2.293 6.4578-14.595 25.735 9.5838 70.939 2.293 34.404-0.92177 115.16-9.362 99.112-3.5703 22.05 7.1085 86.892 2.0854 126.29 3.5703-10.038-13.576 165.9 24.409 88.766 0 31.588-5.5558 135.71-21.269 106.23-6.1328 30.374 14.278 89.905 2.0686 131.52 6.1328 8.6248-36.688 29.897 19.098 91.506 0 57.475 0.85561 112-1.4369 159.21 0h171.36c23.535 9.9143 28.128-113.28 23.458-17.536-3.368 57.018 90.695-20.112 64.222 12.919 13.406-22.263 20.374 27.369 37.399-22.172 8.255 70.56 14.239-31.98 25.773 26.789 25.932-24.084 53.402 0.62113 34.849-0.6992 89.385 1.6302 182.25 0.23397 272.97 0.6992 0.8-73.832 14.645 53.823 13.082-55.742 17.177-39.492 0.6221-86.773-7.7499-1.2733-35.399 16.23 53.929-229.62-4.8032-77.692-14.567 48.272-24.26-61.753-13.662 33.652-15.427 54.067-57.411-69.226-40.918-100.7-23.23 114.47-19.443-2.0323 5.7866-49.332-44.889 52.894-26.377 115.34-42.359 115.09 2.3237-53.693-17.43 55.933-7.9411-21.188-27.611 91.192-4.4754-64.342-17.41-26.515-18.614 23.297-18.463 63.069-26.463-25.696-24.601-107.78-23.928-7.4318-10.003 26.397 21.284 70-2.1068 13.913-1.3247 74.673-14.665-82.863 3.0276 86.966-20.701-0.2192 24.873-96.917-0.6651 33.879-7.4727-17.434 10.788-105.5-18.961 59.265-11.918-39.473 1.1253-26.196-15.662 55.919-11.41-19.883 25.392-106.49-30.668 92.128-10.34-26.525 17.945-150.58-4.0064 104.41-10.5 74.482-1.1863-71.913-5.17-54.581-14.911-9.0857 5.105 99.466-40.594-127.31-19.32-5.4076 20.174 111.02 2.5345 62.38-1.8714-1.084-32.543 30.087 4.9231-181.67-24.93-46.894-62.788-150.96 20.361 77.476-7.6679 59.663-16.127 55.404 0.053-65.947-18.582 25.98-1.8314-79.322-32.125-65.825-26.49-49.509-3.0547 82.562-10.409-74.206-19.108-22.26-49.943-125.04 24.155 111.59-22.301-0.5616 9.8473 30.706 1.4762 98.034-9.7813 47.543-17.229 30.624-15.242-31.934-17.679 44.922-10.078-113.53-12.384-61.735-20.391-8.7377-25.243-24.021 9.6158-116.46-18.52-48.163-2.2808-108.44-39.638 138.4-35.936-8.3132 19.907-144.14-4.79 120.14-12.303 81.208-1.0814 22.113-1.2914-94.108-16.82-13.242-17.824 45.198 25.741-121.66-8.2622-15.629-3.4846-34.939 20.804-117.84-5.7305-31.641-22.73-120.61 0.9736 124.24-26.655-11.477-7.8927-13.886-43.75-91.767-13.896-9.7684-13.703 30.178-27.756 99.618-19.19 27.29-22.751 64.17 13.001-53.186-13.789 7.4998-25.344-76.778-8.1617 2.0259-3.6602 17.364-5.8299-33.401-6.2885 45.584-13.941-19.203-0.1764 141.96 1.6636-105.26-8.1401 26.094-13.87 99.427 15.56-155.47-12.821-7.9092 53.496-186.04-46.611 100.67-16.801-2.6675-28.256-132.72 6.9275 163.99-31.042-3.5385 4.522-79.799-20.408-40.711-10.767-29.597 19.593-98.419-34.238 113.02-9.1488 6.1092-46.647 60.453 10.217-144.25-10.13-97.962-30.959 22.95-41.944 202.45-46.688 145.64-0.2519-37.2 52.038-210.47 5.1566-78.235-18.539 100.71-3.5799-79.333-22.837 7.7153-5.2747-47.564-15.837 53.011-1.3166-35.316 40.559-87.886 2.5756-38.623-12.594 14.731-15.79-72.767-28.258-87.277-14.041-1.9418 8.0141 61.334-31.872 37.793-3.401-14.028-18.779 66.84-38.376-100.63-21.221 18.254 5.9179 83.602-12.561-78.323-8.0957 33.856-2.6857 56.878-7.6636-58.739-6.7276-44.993 10.624-63.565 0.4887-64.984-6.9267-0.65511-7.8075-84.245-18.575-75.632-7.3203 3.7339-8.0225 12.384-3.0524-39.94-18.563 25.211-14.852-24.22-15.226-51.122-17.758-0.9803 3.9108-42.867-14.366 45.337-13.441-26.07 9.8779-54.772 2.7232-45.721-12.988 11.523 12.283-66.858 1.8643 10.593-22.652-42.192 28.222 41.884-8.4653 130.65 2.1406 26.016-4.9609-48.362-17.258-3.4227-13.289 16.81 11.599 62.466-4.9281 56.949-14.332 17.097-1.1665 97.41-10.524-19.301-38.558-64.914 19.099 47.174 19.379 117.49 12.429 99.95 1.3515 59.223-8.7017-84.042-16.073-14.234-16.076-42.77 7.8723-131.98-14.559-39.316-10.637 49.772 1.558 129.49-11.422 58.461-6.6326-68.73-22.933 71.002-14.09-28.043 4.2142-51.517-30.703 97.611 0.9215-29.539-50.722 123.17 22.209-140.43-21.925 1.4338-8.7213 18.942-10.011 99.322-22.33 0.54875 8.0275-48.228 16.467-113.28-4.261-24.493-8.0832 45.59-16.37-40.687-22.741 37.407-33.754 113.91-14.562-157.17-34.915-41.694-8.6602-14.87-0.3566 81.174-20.923-5.1599-36.496-43.013 43.135 61.571 0.3529 94.203-14.301-39.772-9.9419 23.611-36.289-67.168 21.1 77.794-27.076 21.329-16.792-21.9-18.633 3.717-25.787-42.559-8.1914 23.618-6.3132 104.74-16.855-14.739-17.288-4.8335-17.184 65.568-17.826 152.09-21.906 31.415 11.42-74.739 3.1311-87.649-6.8997-8.0231 2.1632 65.251-13.266 49.447-6.2463-6.0914-5.0644 53.057-20.375 89.424-12.051 14.055-29.643 61.052-16.98-129.17-30.988-21.02-17.276 77.228 38.345 106.73-23.762 1.0238 4.6802 60.563-14.549-120.96-22.809-23.922 13.476-60.578 30.29-136.01-2.0467-31.407-8.8028 58.44-21.132 164.77-12.223 41.774-15.742 109.79-47.016-115.29-32.912 13.635 0.2734 18.674 0.4565 60.059-6.3769 45.545-25.874-17.074 23.224-165.13-9.7814-76.336-5.9258-48.411-36.406-121.2-12.898-27.566-26.597 9.714-33.914 168.31-29.742 48.821-11.492-29.271-28.828 64.172-18.391 70.016-3.106-38.415 28.803-170.24-12.98-64.199 9.5117-46.262 12.421-111.18-6.8476-24.328-11.236-57.006-7.1652-99.684-0.5441-161.37zm-14.039 76.609c4.1365 71.978-14.587 49.407 0 0zm-1667.8 38.355c1.2729 49.036-30.973 114.14 0 0zm1514.8 1.0781c4.2975 8.5992-1.7085 5.685 0 0zm-887.15 0.02c10.58 56.287 10.004 156.52-2.7695 46.638-5.5934-15.502 0.97023-31.21 2.7695-46.638zm1024 1c4.4233 33.201-10.448 2.3485 0 0zm-44.438 6.5351c2.9694 7.9714-2.7202 9.9764 0 0zm-94.242 2.6172c9.648 21.262-10.515 28.839 0 0zm-1397.3 3.461c13.969 79.81-10.697 135.82-4.3827 66.806 2.8628-19.56 0.64235-39.748 4.3827-66.806zm1387.5 2.6835c3.1601 1.2258-1.0694 13.827 0 0zm110.8 0.5625c17.647 47.873 8.1717 45.249 0 0zm-1607.4 0.754c5.7954 20.156-14.874 27.856 0 0zm1047.7 0.5507c14.862 78.736-6.7114 72.005 0 0zm127.72 0.5664c7.0415 22.598 53.947 170.76 15.039 85.719 19.842 110.6-30.636 9.98-16.932-6.6911-12.88 6.6076 15.484-108.59-11.621-4.7852-8.5552-22.538 11.884-51.403 13.514-74.242zm465.55 0.3008c2.0593 15.244-5.886 26.641 0 0zm-72.852 0.336c6.153 43.591 3.9494 67.61 0 0zm176.81 0.8398c26.683 78.276-29.587 55.636 0 0zm-95.539 3.9141c-0.3288 20.995-1.521 4.2535 0 0zm13.211 0.6015c6.1994 26.488-3.4301 6.4107 0 0zm-63.332 1.1407c18.787 104.56-7.4884 106.3 0 0zm-1687.4 4.5234c12.812 42.059 4.1067 30.492 0 0zm3344.7 0.2695c-33.094 34.412-35.99 248.12-25.541 205.73 2.3136-69.274 6.8348-138.78 25.541-205.73zm-2853.6 1.5469c6.5303 48.465-8.1998 43.639 0 0zm-397.93 0.1133c24.177 46.309 15.983 108.72 0 0zm1578.5 1.1601c1.791 5.5613-0.7462 1.4356 0 0zm-1589 2.7891c0.11925 70.376-25.179 78.621 0 3e-4zm1507.1 0.9258c6.6058 37.122-6.2018 44.161 0 0zm-724.76 1.3828c46.288 82.666-35.543 155.98 0 0zm-579.86 1.5586c0.37025 1.3659-0.21043 0.3514 0 0zm834.04 1.9531c9.5216 32.13-8.9784 73.273 0 0zm-710.24 1.3047c14.761 37.038-1.2393 25.033 0 0zm1197.1 2.1562c6.6832 18.945-8.2076 43.213 0 0zm-1182.4 1.5391c3.7282 14.138-7.0797 20.138 0 0zm8.6016 0.5547c12.878 23.247-7.406 45.326 0 0zm1315.2 0.023c2.8465 10.721-2.153 2.3876 0 0zm-13.02 3.1094c5.9062 9.4702-8.8734 34.29 0 0zm179.53 0.4375c23.149 40.598-20.08 83.729 0 0zm-191.02 1.1758c11.176 46.131-14.422 57.683 0 0zm-86.359 0.9687c0.1071 0.24216-0.085 0.0512 0 0zm-606.97 0.1563c13.059 112.24-11.966 38.492 0 0zm730.56 0.625c6.4106 17.442-0.9412 41.45 0 0zm1480.7 0.074c27.761 35.821-18.969 193.24 1.3398 81.359-25.269 59.55 2.5623-71.687-1.3398-81.359zm-2862.4 0.6484c-3.3376 20.44-7.7263 21.783 0 0zm1271.2 0.067c5.7264 27.485-6.0261 55.793 0 0zm133.35 1.9531c8.2655 50.133-24.343 79.811 0 0zm-215.97 0.2969c0.5572 1.5387-0.6148 0.27886 0 0zm-1247.5 0.1835c2.8435 11.09-3.8809 1.2754 0 0zm-38.449 0.1133c16.882 54.466-11.092 117.09 0 0zm1353.7 0.9532c3.8215 15.514-11.429 24.326 0 0zm-1545.1 0.875c23.796 74.96 0.67122 43.738 3.5586 30.474 11.58 60.573-29.995 117.71-2.1366 23.389-16.075 24.179 2.0754-47.773-1.422-53.863zm1730.9 1.3164c0.8399 0.71716-1.5961 2.574 0 0zm-255.05 0.289c12.618 32.595-30.748 65.078 0 0zm-917.17 3.25c2.8576 4.6611-7.2712 17.309 0 0zm377.67 1.3125c4.8864 34.849-11.051 3.3338 0 0zm-324.87 0.2266c4.5238 63.426-5.2866 37.39 0 0zm-383 0.3125c-1.0595 64.068 1.2546 116.38-2.9727 18.934zm1504.3 0.2383c16.49 47.177-41.159 130.39-0.019 29.54-30.653 64.764-3.1891-14.182 0.019-29.54zm-1023.1 0.7382c12.556 28.435 5.5249 1.0837-3.0967 15.346l3.0938-15.345zm1576.7 0.4844c2.9005 6.2464-5.339 16.729 0 0zm-241.42 0.7305c15 66.305 16.493 75.639-0.4219 3.7266zm-990.06 0.3516c11.087 18.147-11.613 31.326 0 0zm604.32 0.8632c9.2225 41.638-6.8047 10.59 0 0zm429.78 0.3672c27.392 38.632-31.414 73.299 0 0zm-965.89 0.2539c7.0706 18.144-13.976 22.773 0 0zm-716.43 0.3907c7.1628 23.669-7.588 20.829 0 0zm1925.7 2.4062c7.7962 30.192-21.244 75.755 0 0zm-2003.8 0.9102c5.1027 15.652-3.9691 8.7068 0 0zm-92.164 0.1445c4.7833 12.044-1.6238 3.1697 0 0zm-71.586 1.3672c11.093 51.338-10.135 33.874 0 0zm1451 0.4336c1.1511 2.3161-3.2281 7.804 0 0zm-617.01 0.02c2.0567 1.2041-0.7025 8.8911 0 0zm395.21 0.9345c7.651 106.46-18.922 68.204-8.539 52.61-3.6278-7.1977 7.8302-41.85 8.539-52.61zm-1471.6 0.051c18.046 42.508-6.9542 51.533 0 0zm159.3 0.4297c2.566 4.5515-1.1238 35.514 0 0zm-343.18 0.6758c15.329 52.776 5.8895 134.93-0.53906 28.457zm2730.3 0.5c-4.1902 73.615-25.642 99.438 0 0zm-1446.8 0.5703c6.25 17.387-1.9222 8.037 0 0zm645.33 0.4023c7.7047 32.429-0.9189 25.676 0 0zm296.76 0.1992c-0.2683 34.403-6.0276 51.649 0 0zm-317.16 0.086c-0.6147 11.51-5.2084 10.906 0 0zm-574.22 0.5195c11.712 54.272-3.1336 43.118 0 0zm28.57 0.543c10.112 46.989-1.3272 60.036-2e-4 0zm-975.38 0.1172c3.9421 8.4957-0.80093 11.874 0 0zm2148.7 0.023c4.3567 45.323-25.552 103.53 0 0zm-1814.1 0.086c0.63419 1.1791-0.17051 0.34716 0 0zm1823.5 0.4844c0.8922 2.7462-1.4178 4.6671 0 0zm119.64 0c0.2772 0.13864-0.1069 1.4578 0 0zm-1472.2 1.0234c4.8987 38.994-9.681 44.15 0 0zm109.38 0.2344c12.601 29.714-5.3573 13.924 0 0zm712.68 0.5938c16.448 60.48-6.6203 16.245 0 0zm-1405.8 0.01c-1.713 47.709-4.802 3.7056 0 0zm619.77 0.289c8.3722 28.082-6.8336 2.8419 0 0zm1075.7 0.2813c19.869 94.186-4.7717 38.339 0 0zm-263.39 0.094c20.002 19.91-3.1796 65.902 0 0zm56.293 0.086c14.498 54.715-38.372 64.441 0 0zm-996.76 0.2344c15.884 47.97-10.57 73.302 0 0zm217.92 1.0703c4.6158 15.811-12.731 28.762 0 0zm-918.78 0.4687c2.2871 8.7278-6.423 17.25 0 0zm2855.1 0.2656c12.429 39.957-6.5881 35.07 0 0zm-3147.5 0.2149c8.6689 15.896-8.5459 80.959 0 0zm2024.1 0.3437c31.745 62.047-1.9158 62.272 0 0zm419.69 0.8789c7.456 33.388 0.4172 24.185 0 0zm24.492 0.01c-1.069 27.614 0.726-3.7708 0 0zm606.4 0.4336c17.536 45.885 5.7035 48.418 0 0zm-1435.9 0.1367c1.4996 40.896-1.0786 9.3736 0 0zm-1025.7 0.125c13.912 36.071-9.5163 19.253 0 0zm-143.36 1.3633c0.69234 1.0844-2.3483 3.2339 0 0zm900.28 0.019c24.409 86.176-2.3742 90.228 0 0zm-980.62 0.7226c12.757 18.434-8.6104 49.495 0 0zm738.87 0.2696c4.9817 8.6599 0.5327 32.257 0 0zm-620.27 0.9492c3.7714 37.131-8.6326 47.443 0 0zm133.3 0.1094c2.6309 2.0818-4.7086 11.165 0 0zm2150 0.1211c19.19 42.774 28.143 118.68-1.4685 28.336-1.0981 15.099-13.427-52.183 1.4685-28.336zm-1836.4 0.2968c13.193 87.564-3.9139 58.175 0 0zm354.89 1.1719c7.2828 7.732-14.264 35.206 0 0zm-162.46 0.3125c3.5524 59.874-7.324 49.631 0 0zm1433 0.2617c7.214 29.88-8.9446 15.619 0 0zm-248.41 0.1172c13.259 64.013-8.8198 110.2 0 0zm-1463.6 0.1211c4.6568 47.194-15.516 21.454 0 0zm2129.9 0.1797c10.938 43.744-17.568 47.014 0 0zm-1422.7 0.5234c4.8171 3.7358-6.6165 20.283 0 0zm-290.37 0.2696c0.7527 1.3659-0.9481 5.1985 0 0zm-1255.2 0.6679c5.7083 12.353-0.27873 6.6013 0 0zm2873.5 0.1407c-9.3565 101.21-18.058 48.378-1e-4 6e-4zm-2414.3 0.5312c5.9572 21.869-3.6938 16.062 0 0zm-60.434 0.3516c2.0337 28.964-8.0549 1.9277 0 0zm1666.1 0.2343c10.279 31.668-14.981 58.072 0 0zm455.02 0.1133c6.7595 29.739-9.5227 19.271 0 0zm-1447.8 0.031c5.5656 8.9983-11.27 37.955 0 0zm-682.22 0.047c0.98078 0.80946-1.0259 5.556 0 0zm1477 0.746c3.8043 29.011-20.294 56.977 0 0zm226.36 0.3399c9.905 8.3423-7.4112 16.075 0 0zm-424.04 0.5898c1.9559 10.747-2.2551 1.7544 0 0zm-253.25 0.051c21.202 40.249-5.7511 114.69 0 0zm1835.5 0.2813c14.685 41.825-19.611 85.217-0.3516 1.875zm-2100.2 0.4881c1.1972 2.6886-0.7836 2.3554 0 0zm-627.24 0.059c11.602 47.839-6.0665 29.705 0 0zm741.34 0.8789c1.3958 6.1562-1.5729 1.0311 0 0zm1265.9 0.3594c8.941 27.305-5.1298 42.813 0 0zm-2091.2 0.625c1.0273 6.8358-2.9146 15.138 0 0zm-429.6 0.051c1.971 7.0171-3.2809 3.3312 0 0zm3194.7 0c10.123 47.083-8.2165 10.378 0 0zm-2960.5 0.2924c9.6549 34.761-7.4288 13.487 0 0zm50.73 0.035c11.606 29.49-23.312 66.214 0 0zm1004.9 0.4844c12.191-2.1313-24.717 55.947 0 0zm502.27 0.012c5.691-3.5362 0.5104 34.732 0 0zm-1729.8 0.031c4.4454 33.357-1.0043 13.027 0 0zm1523.2 0.8789c1.5333 58.741-13.66 38.87 0 0zm-588.49 0.1875c12.565 31.006-14.349 24.554 0 0zm-1095.2 0.457c23.012 47.822-5.4891 36.919 0 0zm345.85 0.6914c1.3165 10.492-2.2395 9.2759 0 0zm-221.48 0.1953c0.28087 1.1265-0.11847 0.31775 0 0zm397.02 0.1367c-0.52037 3.5446-4.407 11.39 0 0zm785.4 0.2032c5.8152 30.152-4.4306 15.102 0 0zm531 0.9648c0.6968 33.233-5.6228 22.655 0 0zm-1797.3 0.078c6.3553 19.798-3.6978 45.862 0 0zm131.1 0.1094c2.4949 8.4482-4.9388 18.41 0 0zm2344.7 0.098c-2.1153 22.979-4.3592 4.6428 0 0zm-1761.4 0.5976c1.3955 7.5824-2.4979 0.71618 0 0zm1832.6 0.059c3.2827 30.035-14.347 20.846 0 0zm-1953.4 0.2188c1.374 12.182-2.7856 2.3151 0 0zm1668.2 1.2461c12.28 44.333-11.515 47.324 0 0zm-245.6 0.02c23.373 76.351-3.2088-13.445-14.09 42.414 4.0237-14.35 8.7639-28.496 14.09-42.414zm-289.6 0.086c2.0405 51.557-6.3042 21.985 0 0zm-132.24 0.023c9.7566 36.399-6.1084 8.9845 0 0zm-444.22 0.3515c2.7317 10.744-3.2047 15.02 0 0zm1337.4 0.082c1.8225 8.7267-4.7386 9.5028 0 0zm-2560.9 0.051c16.254 61.874-3.2487 79.722 0 0zm2347 0.027c23.126 38.429-11.534 25.798 0 0zm-645.2 0.082c2.6837 23.658-4.6488 4.4179 0 0zm-969.7 0.9024c13.282 58.324-14.681 13.047 0 0zm2575.2 0.3632c0.3047 0.45814-0.7655 1.6054 0 0zm-2853.8 0.5938c7.4456 50.902-7.6797 172.74 1.1543 37.965-0.16204-12.653-0.40297-25.328-1.1543-37.965zm-140.29 0.043c7.5025 26.97-4.2012 49.868 0 0zm1584.9 0.3828c4.7157 11.811-4.2199 42.168 0 0zm-592.34 0.2148c12.564 69.128-2.3073 49.33 0 0zm932.51 0.2266c1.5158 0.788-1.9908 4.7553 0 0zm-1954.4 0.098c-0.40181 6.7191-1.8499 10.057 0 0zm2433.5 0.2774c10.744 8.1514-14.444 39.544 0 0zm-603.53 0.2539c21.761 53.586 1.2108 79.606 0 0zm-1414.9 0.055c5.7448 36.794-14.224 65.527-2.9102 16.371zm2535 0.1953c11.027 41.942-6.5765 23.692 0 0zm-2295.5 0.1601c1.1649 12.479-3.1044 1.6176 0 0zm230.74 0.2657c12.021 55.596 4.2787 38.627 0 0zm1267.9 0.082c6.2893 10.311-5.1112 22.071 0 0zm-1886 0.1289c3.6423 33.279-16.998 36.813 0 0zm981.58 0.168c3.3747 40.262-10.907 42.684 0 0zm-1405 0.3008c1.2389 2.6731-4.1779 8.2187 0 0zm135.13 0.5117c20.765 63.022-5.3314 26.233-2e-5 0zm2410.7 0.039c5.6222 18.044-5.6818 8.1736 0 0zm-1387.7 0.039c1.0993 2.6965-4.1587 7.3931 0 0zm1244.9 0.1406c7.3096 37.65-8.1745 10.034 0 0zm-1972 0.4414c0.94022 52.642-7.2095 49.114 0 0zm823.84 0.7383c11.468 17.135-15.202 39.053 0 0zm1839.6 0.125c2.4595 3.7731-0.9669 1.1315 0 0zm-1634.5 0.1133c18.82 45.507-17.017 72.961 0 0zm1594.7 0.6562c2.2909 9.0355-1.347 2.2137 0 0zm-306.6 0.1485c15.768 49.797-20.301 34.766 0 0zm-1889.5 0.2656c10.352 18.6-9.0903 44.149 0 0zm164.62 0.625c-0.4177 6.0969-0.7813 0.65756 0 0zm-752.68 0.2617c-0.022 2.2659-0.24965 0.41547 0 0zm115.59 0.1797c1.861 13.521-7.177 27.577 0 0zm911.01 0.168c19.608 54.976 0.4216 56.388 0 0zm631.4 0.1015c1.4206 25.829-4.4761 44.802 0 0zm-1577.1 0.7188c5.4752 42.133-6.7236 68.995 0 0zm2524.6 0.1719c17.787 86.854 0.5515 65.091 0 0zm-1603 0.023c3.135 16.166-13.727 25.443 0 0zm-726.74 0.25c1.6564 63.136-3.8478 34.113 0 0zm332.53 0.086c6.2631 1.4161-0.6729 23.544 0 0zm-132.51 0.1875c1.3623 6.7896-1.061 1.7706 0 0zm2378.8 0.3047c9.3275 29.76-4.2032 45.842-0.4805 10.164zm-99.312 0.062c2.5023 21.216-3.3518 17.599 0 0zm-2406.5 0.2539c-2.7378 68.791 3.1072-14.796-4e-3 0zm2663.9 0.4024c15.723 37.474-10.117 45.829 0 0zm-102.51 0.1367c5.1976 19.815-5.6053 10.725 0 0zm-2923.7 0.4648c-6.0846 52.299-5.2221 22.56 0 0zm1124.4 0.07c4.4403 4.0214-4.2369 23.922 0 0zm680.96 0.5039c-4.3638 88.855-7.6284 53.59 0 0zm-1404.6 0.078c4.6672 31.25-8.1857 49.054 0 0zm1452.9 0.1914c6.2434 31.575-6.0434 5.4783 0 0zm395.21 0.082c1.1328 11.502 4.6749-22.259-3e-4 4e-3zm700.84 0.094c8.5038 48.215-4.7591 67.027 0 0zm-580.34 0.1094c23.303 66.584-18.156 118.86-0.01-3e-4zm363.51 0.023c5.1683 49.153-1.4953 32.792 0 0zm-38.891 0.1016c0.4873 2.096-0.6853 1.403 0 0zm-1560.6 0.086c4.7402 11.094-6.1776 14.244 0 0zm-106.55 0.062c2.3292 5.7831 5.9664 19.483 0 0zm1643.9 0.5351c4.4202 31.277-14.603 74.986 0 0zm-1224.6 0.3868c4.403 11.558-6.2288 11.238 0 0zm1083 0.2617c7.2244 20.432-2.0174 51.038 0 0zm440.85 0.1328c11 73.039-18.192 42.678 0 0zm-132.61 0.168c1.2874 2.5854-1.5646 12.528 0 0zm-2219.4 0.051c7.8561 36.031-11.457 79.121 0 0zm-80.941 0.047c2.1271 12.918-4.063 1.1259 0 0zm200.39 0.062c8.689 19.494-9.7368 21.209 0 0zm-410.38 0.3399c5.06 33.527-4.4661 16.468 0 0zm392.79 0.6093c12.289 23.426-7.7235 32.71 0 0zm1218.8 0.035c5.1701 5.1941-8.4537 23.577 0 0zm-1801.4 0.039c1.2021 6.72-1.006 1.4666 0 0zm-78.242 0.1211c7.982 28.237-8.4559 15.053 0 0zm1830 0.207c11.894 24.327-2.1248 39.808 0 0zm-778.12 0.1094c4.9408 25.309-5.4838 21.743 0 0zm-299.9 0.035c9.4171 59.382-10.424 41.521 0 0zm533.34 0.7422c2.3326 3.2203-1.3492 8.583 0 0zm-690.59 0.1836c5.3603 14.799-2.0746 18.205 0 0zm-204.72 0c4.589 25.922-13.163 30.042 0 0zm-646.59 0.1211c3.135 14.894-1.2986 3.9597 0 0zm1830.1 0.6406c9.8816 12.49-13.114 50.903 0 0zm-924.83 0.086c8.5309 10.232-12.169 29.795 0 0zm947.44 0.207c6.7678 35.082-4.3065 110.1-3.9864 47.441 2.5117-15.719 2.0084-31.676 3.9864-47.441zm-1154.2 0.07c6.8745 40.352-2.4388 8.56 0 0zm1514.9 0.4922c0.6666 3.2754-0.9161 0.45251 0 0zm698.26 0.9726c2.3207 6.2777 0.2829 5.7485 0 0zm-724.17 0.3047c10.644 27.086-0.3373 51.476 0 0zm-966.19 0.4571c6.8136 24.135-1.1933 22.067 0 0zm1148.2 0.1445c1.2709 33.679-4.4767 52.426 0 0zm-563.68 0.6523c3.2145 11.501-1.7728 14.906 0 0zm-1653.9 0.125c5.9108 33.582-2.3408 41.108 0 0zm2658.2 0.055c5.5697 38.113-0.2252 95.603-2.1094 24.398-9.298 27.264 0.6181-19.986 2.1094-24.398zm-2509.8 0.1797c0.77479 4.301-0.93898 0.54481 0 0zm2658.7 0.3125c-2.1211 61.076-11.124 17.091 0 0zm-2213.7 0.035c0.4365 1.3586-2.6009 5.8982 0 0zm-901.62 0.1445c7.0723 8.3088-6.2356 29.63 0 0zm1954.2 0.5993c4.4005 69.272-13.442 42.194 0.011 0zm456.82 0.1171c2.9574 9.0765-4.2007 11.181 0 0zm-180.72 0.2305c0.6861 9.4724-1.3573 4.5578 0 0zm413.98 0.4649c1.8247 7.8804-1.1066 4.207 0 0zm-760.03 1.0781c6.9303 40.488-1.2401 36.605 0 0zm-1055.3 0.3867c0.44038 1.2976-1.6034 5.0847 0 0zm1294.3 0.016c14.592 35.746-8.4223 58.789 0 0zm-2002.6 0.3164c13.807 35.766-5.5473 45.56 0 0zm1913 0.0231c7.7497 20.495-5.8985 40.17 0 0zm738 0.6015c17.462 79.13-15.063 34.214 0 0zm-1468.1 0.2852c1.3157 6.1967-0.012 15.159 0 0zm329.27 0.051c16.017 44.706-6.5305 24.688 0 0zm1311 0.016c-10.496 41.665-4.2633 11.077 0 0zm-2550.6 0.125c4.4909 11.222-2.2454 5.9782 0 0zm2656.9 0.1172c7.896 31.862-3.1292 62.159 0 0zm-2161.9 0.1094c0.8042 30.303-8.3944 40.804 0 0zm-596.45 0.027c1.8269 2.6811-3.606 10.029 0 0zm1002.1 0.1445c0.3474 1.8193-0.1092 0.42523 0 0zm762.35 0.043c20.47 50.527-10.624 54.128 0 0zm-1797.8 0.031c12.243 6.7387-13.803 31.676 0 0zm333.16 0.082c0.26947 1.0018-1.3326 3.6794 0 0zm-366.79 0.035c14.299 49.052-4.5622 75.975-0.59762 20.148-11.527 58.718-6.1715-12.964 0.59762-20.148zm2464.3 0.7657c-2.8902 55.557-18.257 80.893 0 0zm-2143.8 0.5078c2.2925 2.0195-2.88 12.336 0 0zm556.76 0.031c4.3939 13.334-2.2337 3.3628 0 0zm1079.8 0.3164c5.1685 39.252-0.6236 9.3123 0 0zm-605.99 0.086c0.7183 12.394-0.9358 3.0637 0 0zm253.49 0.3398c1.7152 1.7621-1.5818 12.2 0 0zm-77.027 0.2031c2.2546 41.456-6.7783 39.202 0 0zm614.65 0.078c3.8761 5.0876-9.2164 17.873 0 0zm-826.72 0.289c12.648 14.36-21.008 54.644 0 0zm184.57 0.2227c5.3746 13.615-5.2239 6.2814 0 0zm194.98 1.164c4.0026 39.684-9.0332 20.196 0 0zm573.88 0.1797c2.4802 19.517-6.7732 14.78 0 0zm-2217.8 1.4492c14.306 31.433-6.4602 20.157 0 0zm787.97 0.066c4.7725 33.394-7.8292 9.7092 0 0zm796.07 0.3398c1.7173 6.347-1.923 4.9751 0 0zm-1934 0.062c9.5678 50.063 1.0279 15.705 0 0zm480.21 0.078c1.9725 13.279-4.843 10.251 0 0zm1888 0.016c2.3114 31.359-5.4334 6.558 0 0zm-36.32 0.2969c11.35 32.754-2.3866 9.2175 0 0zm1214.9 0.09c-46.405 50.041-19.97 167-5.1074 41.692 1.5612-9.8706-0.4098-21.521 5.1074-41.692zm-1027.1 1.2929c11.388 38.428-13.669 65.132 0 0zm-31.859 0.1407c14.404 63.268-8.85 33.598 0 0zm435.79 0.1015c6.1236 24.509-8.7096 27.823 0 0zm-2241.1 0.2149c1.3063 2.2367-1.9861 6.645 0 0zm-145.14 0.019c2.1689 21.101-3.0085 11.502 0 0zm2235.9 0.1094c4.1676 12.102-5.9037 13.376 0 0zm541.6 0.023c2.7987 22.502-4.8375 10.711 0 0zm-1758.5 0.3906c3.4451 14.921-5.6439 26.619 0 0zm-534.01 0.2578c2.1063 25.47-4.3233 3.5586 0 0zm2229.4 0.3477c0.9254 1.4458-1.8929 5.4426 0 0zm-1789.2 0.07c17.062 31.652-4.0588 22.45 0 0zm-770.9 0.1563c3.7076 17.073-6.4807 4.7584 0 0zm-614.76 0.2812c14.283 82.339-11.898 52.752 0 0zm2305.6 0.047c2.3619 23.191-7.7161 25.407 0 0zm-1471.9 0.2031c16.551 82.775-8.491 82.127 0 0zm120.7 0.582c0.4135 41.044-7.5983 25.349 0 0zm510.56 0.1758c10.908 54.245-14.502 43.931 0 0zm1819.8 0.5586c6.0976 7.7977-7.9216 28.789 0 0zm-2956.8 0.094c-1.9158 33.15-4.4651 7.3502 0 0zm380 0.6172c6.1609 23.332-7.8907 18.028 0 0zm890 0.074c15.845 36.443-4.1476 44.817 0 0zm-1216.5 0.1953c8.6037 37.229-10.515 19.456 0 0zm-123.16 0.055c10.556 31.587-12.422 61.893 0 0zm193.26 0.5898c0.1294 0.27583-0.16367 0.55221 0 0zm2817.3 0.078c-2.6694 44.63-10.7 45.496 0 0zm-2179.9 0.1719c-5e-4 1.831-0.4318 0.16982 0 0zm980.24 0.082c12.963 27.566-4.9088 21.438 0 0zm-578.36 0.1718c12.477 50.086-5.2675 38.19 0 0zm1641.9 0.098c0.6447 0.42866-0.4509 3.8115 0 0zm-1431.4 0.027c2.466 5.784-1.5475 11.153 0 0zm1357.4 0.3711c7.0411 36.128-2.496 16.422 0 0zm-466.7 0.1836c5.6196 21.481-4.317 10.568 0 0zm163.3 0.125c1.5841 1.801-2.0801 8.4435 0 0zm484.92 0c3.8071 2.9654 0.9719 20.207 0 0zm-614.46 0.1797c0.4382 1.4044-0.205 0.38705 0 0zm-1108.2 0.031c17.949 44.448-9.9988 28.042 0 0zm-617.02 0.414c4.2925 21.931-6.2615 3.157 0 0zm-512.02 0.6875c1.0564 5.549-1.0429 0.73372 0 0zm1946.7 0.1641c0.5415 4.2302-0.7045 2.3845 0 0zm-237.26 0.6172c0.3167 0.32532-0.5103 1.55 0 0zm739.35 0.035c3.5715 3.0808-3.5287 19.037 0 0zm-1490.5 0.4102c-2.2875 21.594-8.2619 21.805 0 0zm979.82 0.01c1.427 5.2225-3.0048 7.6653 0 0zm-1230.7 0.4648c9.6385 18.583-12.243 24.84 0 0zm1812.1 0.1329c-6.1643 32.45-13.06 57.481 0 0zm-1118.1 0.1953c0.8006 1.6182-1.5331 6.8225 0 0zm1553 0.2226v0.02zm-2082.6 0.211c10.189 49.287-3.4383 63.724 0 0zm2123 0.1445c12.715 45.866-1.0695 36.884 0 0zm-2358.7 0.1406c8.1745 40.625-4.509 62.426 0 0zm1674.7 0.336c4.9199 36.873-6.8585 35.617 0 0zm-741.95 0.207c2.4152 1.3748-3.0543 9.7138 0 0zm-1288.3 0.031c2.4174 40.265-12.168 48.889 0 0zm1696.1 0.2344c4.3153 19.585-5.9997 3.0491 0 0zm-316.5 0.6172c6.5266 47.421-5.3088 11.394 0 0zm-1069 0.6133c1.7207 5.9658-2.7833 7.2092 0 0zm-964.33 0.1054c0.89262 1.9674-0.1959 0.51588 0 0zm984.57 0.01c9.4751 26.777-5.0412 40.309 0 0zm2118.4 0.4804c0.8752 7.4805-0.8124 8.4712 0 0zm-3201.1 0.051c2.1611 4.9767-2.6358 19.735 0 0zm695.51 0.3086c5.6463 22.511-0.67225 24.682 0 0zm-508.48 0.1094c-0.66541 9.9785-1.5058 1.9058 0 0zm1030.3 0.4062c6.2546 4.7791-8.0684 23.635 0 0zm2239 0.1211c6.0873 10.111-3.4397 20.669 0 0zm-2628.6 0.2852c7.5656 3.6578-9.1784 19.429 0 0zm-98.691 0.3164c1.1521 4.3599-1.6928 4.9801 0 0zm2160.2 0.4726c0.6439 8.8155-3.7881 14.971 0 0zm-1394.3 1c8.4998 21.181-4.6883 28.864 0 0zm157.52 0.012c9.8799 18.718-4.6793 23.216 0 0zm331.82 0c0.099 1.7645-0.4236 0.0629 0 0zm-1453.9 1.3437c0.34983 0.74937-0.9099 2.6483 0 0zm-303.52 0.123c7.4123 25.443-5.3091 19.588 0 0zm2947.2 0.2969c1.1856 21.197-4.1883 21.765 0 0zm-2677.5 0.035c1.165 9.8837-0.98664 2.4181 0 0zm-320.48 0.3086c1.2293 1.3693-1.7139 7.0104 0 0zm3052.4 0.125c9.045 22.827-11.677 35.105 0 0zm-2211.5 0.051c0.3509 11.306-2.5528 0.98771 0 0zm1228 0.125c0.076 32.83-6.652 22.27 0 0zm-1351.5 0.016c-0.1255 18.63-7.6154 20.407 0 0zm2367.8 0.1016c3.8459 7.0592-4.6472 9.5674 0 0zm-319.35 0.5937c11.795 10.25-3.4177 31.848 0 0zm-2268.7 0.4219c8.164 31.439-2.3945 6.8115 0 0zm588.45 0.5664c2.642 6.6035-2.61 1.2558 0 0zm-781.95 0.2696c0.79502 2.5979-1.877 4.107 0 0zm397.59 0.062c1.8225 3.8928-0.82388 6.7522 0 0zm2609 0.082c1.1734 4.5011-5.0635 12.893 0 0zm-2319.9 0.5625c4.6306 16.83-2.9926 4.602 0 0zm-677.86 0.3047c3.2003 39.809-18.956 36.206 0 0zm2052.6 1.0273c2.4516 16.492-1.9411 9.152 0 0zm-1261.9 0.02c4.752 3.3013-5.3663 16.656 0 0zm761.74 0.6835c0.6184 37.287-5.3357 15.64 0 0zm-128.6 0.016c6.0632 17.713-15.134 45.364 0 0zm-466.1 0.016c1.6009 16.406-4.4316 3.5808 0 0zm-617.36 0.07c0.33197 0.31067-0.27492 2.0087 0 0zm1530.4 0.1211c0.4292 0.73514-0.8456 3.2841 0 0zm1213.4 0.2031c-37.045 116.94 11.234 55.265 10.114 8.5288-18.663 49.466-10.676 21.511-10.114-8.5288zm-2087.9 0.0656c3.301 7.9227-1.5953 2.6432 0 0zm-674.29 0.5196c1.267 7.1856-1.1615 1.12 0 0zm1910.6 0c1.0941 5.993-3.2817 20.057 0 0zm648.5 0.2304c0.7397 4.3206-1.465 0.47768 0 0zm-527.35 0.5625c9.7848 5.5606-12.022 51.704 0 0zm464.31 0.3672c2.7834 36.348-7.5342 5.6514 0 0zm-2891.1 0.1055c13.757 59.115-3.744 12.573 0 0zm2356.6 1.2812c5.3986 13.853-12.558 42.288 0 0zm241.98 0.1446c0.014 0.0968-0.1178 0.31864 0 0zm-2971.4 0.4218c1.1483 6.7009-1.8903 8.6444 0 0zm341.6 0.254c3.7616 3.2374-2.7148 17.528 0 0zm85.344 0.1132c5.3181 9.3259-7.2585 29.265 0 0zm2568.6 0.2344c0.1438-0.02-0.072 0.19823 0 0zm-2500.5 0.6563c0.45526 2.0794-2.5054 6.4959 0 0zm723.89 0.3593c0.5873 1.032 0.1336 5.2362 0 0zm2070.4 0.031c8.2139 4.7972-6.451 28.417 0 0zm-2491.2 0.043c3.7144 23.062-3.8162 5.781 0 0zm294.41 0.4375c2.5313 19.834-3.5382 9.3868 0 0zm-614.48 0.2734c1.5945 1.7895-2.3611 7.7843 0 0zm1099.3 0.168c0.4081 2.9729-0.7931 0.35876 0 0zm-321.44 0.1718c0.7634 28.554-18.701 68.851 0 0zm956.67 0.02c3 19.246-0.2768 22.897 0 0zm10.203 0.7578c2.9792 1.1348-2.1386 16.469 0 0zm-1991.2 0.1484c2.6316 13.533-5.545 15.731 0 0zm1507.9 0.02c2.4191 8.0538-0.6847 6.447 0 0zm105.85 0.082c0.4694 3.0273-2.6446 8.0778 0 0zm558.67 0.1445c1.1284 2.7898-0.796 5.069 0 0zm-922.16 0.027c1.5449 5.0548-0.8847 1.252 0 0zm126.22 0.2421c3.2613 45.488-5.1695 32.67 6e-4 0zm1809.9 0.211c14.145 37.459-11.035 27.787 0 0zm-2665.3 0.012c2.5347 10.049-3.5585 6.9773 0 0zm385.5 0.3359c2.4179 16.152-5.1933 1.9418 0 0zm203.18 0.1993c3.4887 33.574-12.04 54.279 0 0zm296.62 0.023c4.5674 11.753-1.3992 2.9392 0 0zm-1482.2 0.1836c3.3254 3.7836-3.2546 16.693 0 0zm2726 0.07c5.7632 35.754-11.711 45.178 0 0zm-534.05 0.332c5.7782 25.885-11.5 34.795 0 0zm-1822.7 0.7344c2.4006 51.327-4.0112 28.013 0 0zm-546.59 0.5078c9.8247 38.881 1.9651 42.278 0 0zm2189.2 1.055c2.8992 12.869-3.9501 16.128 0 0zm-1328.4 0.1055c3.9686 4.5105-10.19 14.434 0 0zm1535 0.039c0.3531 1.112-0.4515 3.1366 0 0zm-917.94 0.024c0.2757 0.505-0.5072 2.0745 0 0zm1538 0.1875c2.3133 16.123-12.232 53.938 0 0zm-1056.7 0.1328c2.7349 8.5214-1.0778 12.652 0 0zm-1882.3 0.3594c4.5047 10.804-1.1414 6.9164 0 0zm3166.5 0.2382c-2e-4 0.77582-1.0619 1.9172 0 0zm-1891.1 0.086c2.7118 11.575-0.9141 15.123 0 0zm-91.988 0.1367c-0.4885 36.666-7.4217 39.296 0 0zm-386.63 0.1719c1.8593 7.4306-3.708 5.0222 0 0zm347.57 0.086c19.926 8.6151-17.936 54.121 0 0zm18.402 0.25c5.2645 35.667-5.1885 91.324 0 0zm206.03 0.3945c0.3868 1.2095-0.9189 4.6726 0 0zm1672.4 0.1524c3.8689 5.3517-4.9592 23.411 0 0zm-1727.5 0.1992c0.3822 0.87347-0.8009 3.3796 0 0zm1341.9 0.207c2.1562 7.2716-2.3345 4.6926 0 0zm-1357.4 0.012c3.4131 9.0402-3.5281 12.41 0 0zm-176.8 0.375c0.6009 1.1288-2.2274 3.4677 0 0zm1487.6 0.3906c0.107 0.15331-0.105 0.69568 0 0zm-219.9 0.035c11.767 33.739-6.6193 8.9078 0 0zm-2481.7 0.1758c8.5849 11.768-10.802 35.795 0 0zm3118 0.5c6.9202 5.129-9.5867 29.841 0 0zm-2582.1 0.1094c3.8133 14.645-8.0019 26.152 0 0zm2721.7 0.5156c-2.7392 15.391-2.8857-0.33162 0 0zm-1240 0.4414c4.4015 2.3832-5.4008 15.699 0 0zm-1616.8 0.3672c0.11734 0.85571-0.0764 0.17301 0 0zm801.83 0c1.3917 4.1954-1.0832 8.9662 0 0zm419.68 0.078c0.7032 6.8772-0.9363 1.176 0 0zm-605.38 0.3477c1.2988 4.0776-2.5719 4.2856 0 0zm1951.1 0.2148c5.0623 22.426-4.9599 10.734 0 0zm336.71 0c3.0364 31.79-7.2204 36.676 0 0zm-1130 0.016c12.161 26.746-6.1625 7.1579 0 0zm-1404.3 0.09c3.7474 5.8165-0.7909 24.302 0 0zm202.41 0.5391c1.3776 14.199-3.9743 22.975 0 0zm-619.86 0.3984c0.65002 2.223-0.90722 1.6605 0 0zm1119.8 0.211c2.0632 10.478-3.0734 1.6079 0 0zm1382.9 0.2148c0.105 54.562-2.0316 37.307 0 0zm-2516.5 0.1602c5.7685 29.803-9.9458 17.453 0 0zm299.3 0.4531c1.0309 24.154-4.3307 3.7113 0 0zm1299.2 0.3086c0.3362 0.75024-1.0192 2.7391 0 0zm645.37 0.035c2.3408 29.883 0.1805-6.0197 0 0zm313.12 0.2149c2.4118 6.0353-0.8822 1.4993 0 0zm-2606.7 0.7187c3.5392 10.792-3.7304 14.9 0 0zm572.96 0.7383c2.9856 6.8687-4.4974 11.464 0 0zm1592.4 0.2881c1.9268 10.721-3.4651 5.4807 0 0zm-2421.9 0.8515c3.8743 9.3959-3.5123 20.3 0 0zm3139.8 0.168c3.5436 11.63-7.7405 18.869 0 0zm-2295.4 0.098c8.3939-2.9318 0.92345 35.302 0 0zm743.62 0.1954c0.3204 0.94419-0.511 1.5648 0 0zm-1093.4 0.1875c-0.2069 1.8689-0.22017 5e-3 0 0zm1147.4 0.2812c3.1567 17.672-3.604 25.17 0 0zm-365.78 0.016c2.231 10.619-7.9307 17.662 0 0zm1841.2 0.125c1.0965 38.724-7.897 26.394 0 0zm-465.68 1.5703c1.6299 9.4118-3.7113 13.436 0 0zm-1090.2 0.3164c5.3579 11.476-6.4366 26.317 0 0zm1236.6 0.5391c8.4635 28.085-5.407 21.026 0 0zm-2695.3 0.1602c2.1609 11.106-2.2592 6.7645 0 0zm2672.4 0.5625c3.3335 37.227-13.242 29.436 0 0zm-780.81 0.016c4.8785 38.545 2.0389 69.373 0 0zm-215.1 0.4844c0.529 1.7172-0.2728 1.3606 0 0zm337.54 0.2382c8.7009 22.2-4.2291 34.293 0 0zm-79.449 0.066c3.2371 9.5715-2.659 6.4531 0 0zm-1647.2 0.019c1.7878 27.419-4.7257 11.077 0 0zm264.26 0.5625c1.403 0.45833-0.7433 4.509 0 0zm-618.11 0.7265c1.9092 8.4736-1.7856 6.3818 0 0zm1356.7 0.4961c1.8187 0.89833-3.2814 14.409 0 0zm451.01 0.1016c1.0963 5.2979-1.3197 2.8644 0 0zm-1012.8 0.4375c3.8568 5.7356-7.2326 23.594 0 0zm-666.95 0.2266c1.2193 4.4417-1.3267 0.73678 0 0zm157.98 0.8359c3.3083 12.929-5.2801 33.299 0 0zm1742.1 0.078c3.8946 4.9592-2.265 18.17 0 0zm886.99 0.211c2.6993 11.98-3.6061 2.0372 0 0zm476.56 1.0039c1.1192 10.878-7.1349 28.828 0 0zm-2374.2 0.1797c0.4114 3.1289-0.5029 0.73357 0 0zm-899.8 0.078c2.2062 5.3458-1.6688 10.728 0 0zm490.21 0.5547c4.3337 43.084-2.2782 6.4185 0 0zm-616.56 0c0.44197 0.65449-0.43307 2.7309 0 0zm697.65 0.07c2.4245 11.836-6.3832 18.642 0 0zm1557.6 0.293c1.5744 3.7928-0.1461 6.5941 0 0zm-178.21 0.1679c14.852-19.062-8.7267 66.654 0 0zm-966.37 0.1446c2.6187 5.1359-1.9075 19.516 0 0zm-272.76 0.7226c2.5643 26.607 2.251 46.237 0 0zm-723.19 0.4531c-0.98176 9.0008-2.9396 7.4933 0 0zm820.07 0.1993c4.3938 2.7029-2.54 25.538 0 0zm500.8 0.2695c3.1809 20.139-3.5678 21.382 0 0zm-175.52 0.1992c10.128 5.1058 3.5979 57.069 0 0zm2070.6 0.1758c5.2404 18.78-5.4707 8.0278 0 0zm-739.38 0.031c1.0362 1.6306-1.1323 7.2647 0 0zm-1411.8 0.668c0.2833 0.94624-0.5219 3.6291 0 0zm688.55 0.074c5.4942 30.647-5.7568 20.654 0 0zm-1389 0.2852c2.9641 14.92-4.1185 14.298 0 0zm1585 0.5156c4.4211 1.724-3.5766 10.096 0 0zm-1240 1.4805c2.9736 17.743-6.2394 6.6956 0 0zm-368.85 0.035c0.30542 0.24564-0.49978 0.97496 0 0zm334.21 0.078c-0.0219 5.3388-0.8483 0.82907 0 0zm-82.926 0.2578c8.0426 30.637-7.9576 39.969 0 0zm-206.39 0.6406c8.4802 13.101-2.142 22.98 0 0zm-563.64 1.1211c0.43986 0.72015-0.95127 2.6383 0 0zm8.5469 0.086c5.348 19.872-5.318 4.0352 0 0zm1364 0.1094c2.6717 13.183 0.9903 42.388 0 0zm908.18 0.2539c0.4017 0.45548-0.2906 2.3476 0 0zm860.13 0.1055c2.5869 11.606-3.3241 1.5266 0 0zm-1065.1 0.5195c7.4205 20.617-2.7436 17.752 0 0zm-1381.7 0.3867c3.6531 8.0264-5.3046 16.23 0 0zm2019.1 0.6797c5.3094 31.554-7.8141 26.649 0 0zm-2506.6 0.2539c8.7872 22.389-0.87058 6.1346 0 0zm1685.1 1.9024c0.877 1.3544-1.5192 6.0876 0 0zm-1083.5 0.016c5.6252 22.155-5.9682 2.8367 0 0zm2176.2 0.043c5.6514 3.1375-4.4184 16.913 0 0zm-2613.7 0.3984c1.971 4.7295-3.879 8.5702 0 0zm2008.7 0.074c3.8877 28.077-2.9326 6.4651 0 0zm1061.1 1.7149c0.847 14.852-2.6309 13.845 0 0zm-2839.5 0.2461c1.4605 4.2001-3.3709 13.802 0 0zm2794.8 0.2265c1.5243 5.2759-3.1628 6.2233 0 0zm-322.98 1.3477c1.1384 0.85718-0.2714 6.1887 0 0zm-2626.8 0.1406c0.94133 1.4157-0.11009 7.2483 0 0zm661.82 0.375c4.5672 18.336-5.6061 23.556 0 0zm1021.6 0.1875c-0.06 20.683-2.7754 3.7802 0 0zm703.66 0.1484c4.1986 8.2961-2.2653 12.376 0 0zm-1528.7 0.6172c1.4997 5.0146-5.2447 16.818 0 0zm-432.75 1.0703c9.904 19.481-14.766 37.529 0 0zm594.03 0.09c0.2513 6.7389-3.3026 8.4378 0 0zm-1166.3 0.2265c4.0295 5.4018-5.342 36.347 0 0zm322.14 0.047c1.7282 6.2746-2.149 10.226 0 0zm2863.5 0.5664c3.4915 7.6452-3.529 6.6217 0 0zm99.43 0.031c-53.118 32.401 26.748 36.53 0 0zm-1639.6 0.3554c3.2858 20.35-8.9243 24.181 0 0zm485.49 0.9414c3.5767 3.0072-0.3232 22.549 0 0zm740.28 0.7891c0.3823 0.3342-0.2153 1.7779 0 0zm-3152.9 0.062c3.9984 2.1337-1.3591 21.698 0 0zm164.39 0.793c2.3437 13.753-2.6549 2.6963 0 0zm978.48 1.0117c0.8287 5.6957-0.9405 5.3999 0 0zm437.9 0.4883c-0.082 11.44-2.2932 1.8049 0 0zm1038.1 0.5208c1.5039 11.478-2.5969 7.2204 0 0zm-558.13 0.3242c8.2612 23.122-3.3364 8.8347 0 0zm1184.8 0.059c3.2736 9.3256-4.2688 14.217 0 0zm-684.61 0.6758c2.7839 14.045-6.7702 19.004 0 0zm790.67 0.8711c1.7865 14.765-6.1895 21.65 0 0zm33.93 0.3633c1.4142 0.89233-1.4011 6.1083 0 0zm54.301 0.3554c1.5434 3.3037-2.7993 5.8202 0 0zm-2941.1 0.9532c4.6874 26.729-6.859 7.1461 0 0zm2017.4 0.539c3.2998 5.9425-4.5883 14.873 0 0zm-1260.4 0.4688c0.2132 14.943-3.2414 1.6617 0 0zm-388.97 0c2.1973 2.4492-0.60718 12.568 0 0zm-360.47 0.078c0.82322 4.8747-2.4226 16.533 0 0zm2480.6 0.3747c0.041 0.67565-0.7004 2.8294 0 0zm-2987.9 0.3047c6.9579 4.5877-5.3983 20.909 0 0zm3151.9 0.3906c2.3967 6.4619-3.1373 9.2438 0 0zm-2131.1 0.3203c1.6808 8.28-6.1555 8.759 0 0zm2388.7 0.01c1.0092 4.5426-5.1951 14.578 0 0zm21.57 0.012c2.4028 2.1548-2.4238 10.494 0 0zm-3007.2 0.6015c1.3636 1.036-1.3697 6.4262 0 0zm3068.7 0.1485c-20.258 19.14 24.032 18.459 0 0zm-1460.5 1.7343c1.0549 8.5939-0.5478 1.7148 0 0zm-1956.8 0.336c1.9044 2.2363-3.4399 10.416 0 0zm2978.8 0.1914c1.9373 3.925-2.1213 15.029 0 0zm513.56 0.2578c-23.735 14.252 13.48 16.491 0 0zm-2462.5 0.035c0.895 0.90567-1.4585 4.0182 0 0zm-539.52 1.3829c1.2963 2.6499-1.1894 11.167 0 0zm69.102 0.6953c1.9053 13.538-3.136 6.6629 0 0zm1656.4 1.0312c1.7897 7.6678-1.4766 2.8169 0 0zm-266.45 2.9766c0.3632 0.335-0.3575 2.2125 0 0zm370.36 1.3281c0.3741 3.9368-0.6959 0.86803 0 0zm-2477.1 0.1875c-5.9068 5.6086 8.5598 4.7646 0 0zm1041.6 2.4063c-3.5793 1.9613 3.3097 1.9017 0-5e-4"/>
</svg>
