<?xml version="1.0" encoding="UTF-8"?>
<svg width="3665.6" height="335.69" version="1.1" viewBox="0 0 3665.6 335.69" xmlns="http://www.w3.org/2000/svg">
 <path d="m424.87 3.8118e-4c-26.653 89.611-50.567 171.59-52.367 174.67 23.036-88.973-25.764 54.504 4.7836-61.603 1.3022-16.163-23.209 72.485-28.338-6.1502 26.989-94.222-32.396 67.035-0.52349-49.176-20.508 98.974-80.525-74.135-53.527-33.242 21.234 74.071 0.75425 35.067 24.809 128.41-32.509-89.19-0.0997 85.129-17.234-16.262-16.481-32.946-33.087-97.745-13.711-4.5073 0.52851 62.233-13.41 31.705-15.652-7.1484-18.197 111.22 21.497-106.8-13.566 20.238 7.0598-73.551 23.295-133.15-10.605-28.027-16.127 26.418 3.3301-56.767-13.227-12.818 13.496-58.722-17.887-6.0152-12.516 19.995-15.473 21.987-23.289-56.941-12.875 23.274-23.246 45.335-29.956-76.196-22.889 21.487 7.0654 53.24-23.209-64.062-3.9316 24.85-5.219-50.619-64.134-156.18-20.434-36.699-41.709-112.28 29.675 131-17.301 0.97042-37.731-79.095 27.095 99.65-10.176 6.9164-21.847-51.227-40.531-109.13-20.277-16.425 17.273 68.544-1.6915 79.183-9.1289 49.252-23.199-68.172-29.067-96.601-18.824-4.8591-9.4811 70.883-2.426 35.82-10.262-11.007-8.4028 88.56-19.302-58.678-25.184 32.777-16.325 99.892-14.744-21.135-2.082-77.122-28.731 55.077-22.506 179.41-26.969 54.394 3.2519-43.725-21.592-74.32-8.4492 6.1408-20.368 13.379-10.403 81.726-12.383 118.98 18.362 35.027 30.461 5.4502 85.524 18.387h535.58c-16.37-18.447 67.684 11.657 112.85 0 43.975-10.395 54.84 3.8726 118.71 0h947.58c-1.3401-8.1389 80.465 5.6596 119.33 0h762.27c-3.7197-7.7838 82.146 5.4465 119.34 0h786.45c10.387-12.896 43.633 19.909 45.101-66.512-29.21 61.867 16.844 101.04 8.6367 9.5312 17.381-67.003 9.8007-104.42 16.688-117.39-15.531 43.662-65.07 249.4-48.446 89.689-3.4698-34.567 41.196-212.22 1.9477-83.983-18.754 107.51-5.2851 85.141-24.358 92.998 11.02-58.712 16.391-102.35-7.0899-12.613-29.764 152.09 26.469-133.38-8.0512-14.304-24.947 81.402 28.508-103.41-12.328 6.2737 10.517-58.311 23.735-121.9-6.4023-20.453-17.367-47.597 21.547-153.66-14.078-35.624-12.27-6.755-27.348-16.991-12.359 22.476-29.782-37.4 1.7394-139.15-28.703-52.152-13.814 97.596-50.995 105.99-21.289-5.8909-17.328 8.8039-49.628-28.613-31.891 31.554 9.5129 40.031-13.175 29.694-16.348 13.328-18.479 143.95 3.174-54.124 9.3399-78.445-19.93 41.697-31.776 117.99-13.301 24.668-34.591 84.845 15.37-98.064-22.102 22.165-12.124-27.659 18.914-113.75-8.8203-30.875-16.76-58.122 3.6733 132.81-24.297 94.726-11.4-79.899-26.191 11.026-23.441-8.7582-24.496-39.929 42.918-232.93-6.3848-93.44 1.0338 81.468-38.195-96.14-15.857 21.174-23.524 6.7671-5.436 58.437-33.969 5.1563 15.655 48.413-31.669-36.862 3.75 45.512 9.5141 71.628-31.777-126.72-9.668 16.414-7.7291 97.074-15.772-68.289-20.691-55.879 19.362-94.479-11.328 47.102-18.586-44.658-20.14-65.238 8.0848 130.21-26.215 39.517-5.5622-68.126 2.8167-89.294-18.056-22.502-14.647 86.842-26.976 85.868-21.644 18.849-12.856 109.85-53.627-3.8467-37.52 12.078-10.548 2.803-7.1689-23.214-6.5391 35.847-36.038-106.45 14.912 101.38-15.77-25.994-19.301-76.589-35.588-93.808-16.284-13.612 18.806 67.537-3.6644 42.921 11.491 101.9-19.442-53.589-11.01 99.986-19.571-2.719-8.4131 4.3333 9.8215-85.36-13.699-20.445 14.08-61.707 22.791-100.82-3.3985-32.367-22.167 52.132 28.988-127.59-9.9605-12.594-22.417 88.746 24.314-125.82-15.289 2.0004-31.455 88.832 36.372-208.27-9.8652-42.684-17.19 76.16 12.461-68.822-14.416 15.102 13.174-63.731-29.81 86.637-20.334-6.757 5.9702-47.856 22.799-141.65-3.9732-32.938-12.331 46.062-0.5978 130.65-22.974 68.003-4.4537 11.933 1.4143-68.101-17.828-2.699-36.054-52.184 35.664-252.6-14.269-91.506-21.213 127.24 4.6356-83.066-19.461 25.303-23.63 90.545-29.272 45.375-10.102 13.45 24.549-36.314-16.692-36.496-24.73-5.2066 22.456 62.219-22.422-48.175 0.5503 33.339-12.66 80.329-72.358-197.37-39.09-45.855 14.128 54.416 28.127 78.654 7.6718 80.328 1.6809 109.32-27.711 11.056-18.351-10.489-13.602-6.7987-48.2-93.353-15.891-0.0937 13.593 95.222-17.586 8.303-13.66-14.352-27.278-82.027-16.112-45.592-13.02 4.7266-13.318-62.216-23.312-103.26-17.219-16.371-21.007-100.03 9.0737 134.54-23.25 15.508 2.7423-69.228-37.302 123.3-19.609 0.2498-14.635-3.1802-32.762 151.03-17.59 26.039 23.752-106.18-29.175 83.378-2-32.629 9.6885-84.897-31.972-42.555-20.89 9.105-17.718 117.03 18.914-261.33-13.695-63.14-0.1267 89.365-22.838 23.845-17.356 59.863-7.9359-21.643-10.814 89.685-21.807-1.5675-5.5775-81.734-16.509-41.831-34.754 13.275-29.519-145.94-67.821 47.1-54.762 9.9883 30.11-110.07-15.51-30.454-16.559 7.8573-16.676-37.119-41.321-43.834-14.461-59.773 6.3856 1.003-34.084-65.706-9.3085 10.254-17.091 27.086-35.324 50.241-28.929 51.699 15.162-99.819 8.2269-57.881-0.831-56.491 11.109-72.462-13.538 62.873-25.919-5.8301 12.67-41.9-8.6842 1.0028 4.7773-54.863-21.463 66.372 16.738-86.688-13.648 14.492-6.2563-8.1749-27.126 126.63-15.41 30.701 13.303-57.706-38.774 103.06-12.41-13.918-32.449 75.161 28.344-103.29-18.91 14.55-17.285-3.3108-20.903 54.954-15.43 45.543 8.5885-37.119-12.468-1.9806-3.8594-56.563-21.276 55.462-16.673-43.302-15.852-15.973-5.4297 2.8439-33.867 51.289-12.801-29.106-39.57 89.881 0.9629-134.34-34.56 0.61625-27.74 72.1 35.972-182.47-10.183-29.511-3.8703 55.599-26.603-53.227-7.0533 36.175-12.855 8.1041-14.149 34.724-9.9531 36.399-25.06 71.58-35.988 63.654-16.91 29.161 27.324-109.56 1.5179-58.935-8.4375-6.1759-22.095-31.947 13.066-128.62-0.044-113.44-6.8644 11.687-29.821 86.431-14.858 23.582-19.348 90.772-39.673 34.016-36.09 4.0661-32.454-81.462-17.786 13.972-7.9736 20.513 12.874 70.609-7.9961 79.775-25.784-7.2156 30.21 94.31-6.9333 100.05-1.2695 26.586-31.914 54.027 13.613-109.58-13.949-28.609-11.457-62.778-38.939-107.03-10.486-9.9178 19.586 114.16-44.842-122.91-15.009 14.68-25.419 51.73-0.7458 22.389-22.188 13.588 22.926 97.039-31.068-34.726-8.4141 45.4-17.54-47.152-2.6401 75.765-7.4179 2.2734-17.261 12.256-15.491-25.867-12.808 27.919-11.875-9.1886-9.1295 35.557-8.7227-28.699-14.782 21.745-51.186-103.6-19.289 4.8402-24.147-66.77 6.8162 89.224-22.718-17.217-13.096-12.02 18.013 96.736-10.45 8.2872 12.094-48.047-10.879 0.95278-19.883-64.1 18.527 74.454-11.79-12.937 7.2109 66.418-9.7925-39.016-8.042 93.421-27.511-1.3521-15.026-22.836 19.168 82.733-16.059-8.7528 21.114 73.719 16.697 104.25-1.4176 62.582-21.673-36.96 6.6799-102.59-19.91-49.141-14.042-44.088 6.8201 63.233-16.641 0.6006 9.7864 129.63-52.845 2.9074-31.52-3.1504 26.443 93.15 7.6754 56.476-8.3398-13.914-2.1097-54.757-35.53 141.05-53.051 9.6016-8.0895-30.731-27.44 156.25-30.551 33.651-2.4257-1.9255-1.2985-28.302-14.269 19.751 5.4839-38.124-44.545-214.65-15.556-65.779 9.9436 34.432-12.258 134.32-8.8659 63.143-12.622 7.0429-30.99-86.554-14.432 7.5835 18.472 76.922-31.242-96.305-5.7364 12.084 10.154 159.69-6.5532-133.2-25.281-13.711-10.665-97.612-25.441 95.304-26.228-20.083 21.7-69.7 4.4413-56.729-8.9404-8.0026 6.0959-86.895-3.9045-45.839-17.223 16.375 3.0944-50.301 14.261-86.772-13.02-4.7306-7.7128 6.0151-23.104 102.17-16.508 56.242 6.5149-58.014 30.644-133.76-9.793-33.422-13.786-39.392 18.775-120.38-14.348-12.801-54.112 58.996 52.927-200.21-6.7227-71.54-17.214 77.874-9.3635-40.803-17.809 0.8125-31.422 67.766 0.9027-12.52-25.301 30.559-39.849-70.725 0.9334 65.407-31.218-47.734-5.3713-17.843 3.1373 106.4-11.361 1.459-10.562-63.564-33.678-102.16-9.7984-8.5433 6.867 49.415-18.914 64.553-23.13 71.189-8.4277 11.165 19.042-98.653-11.289 1.5005-10.29-43.218 17.914-97.726-10.41-35.446-38.383-171.47 15.804 129.94-16.211 44.512-28.617-83.183 5.7579 31.95-22.16-34.692-5.3115 113.2 19.314-167.02-11.121-24.668-18.658-57.489 2.128 81.049-13.629 24.019-28.578-100.39 6.8192 50.838-20.57 15.266-24.843 85.537 10.283-143.72-24.039-10.883-10.357 18.369-10.407 60.625-11.61 23.172-28.66 63.496 14.831-114.68-15.48-10.97-16.294-66.078-37.974-88.863-11.09-7.0082-26.976 92.691-23.57-61.599-34.024-33.129 23.272-101.41-28.288 85.664-23.047-3.6917-35.5-76.645 8.8022 5.8566-17.262 43.809-38.827 95.204 10.426-164.52-28.148-20.23-12.493 35.454-27.153-61.559-9.75 35.364-2.4237 51.164-28.351-68.338-11.051 19.172-6.3517-51.175-47.249-138.6-20.781-32.867-20.079 46.833-28.653-56.6-27.287-45.572-28.52 93.722-51.934 13.079-26.264-9.8978-24.307-108.18-2.0293 151.17-7.2891 38.051-21.609 48.803 0.6869-39.191-25.844 48.818-24.05 30.373 24.992-215.86-12.394-58.603-32.766-104 13.639 112.22-27.383-10.23 9.1564 46.083 14.841 63.017-5.2578 23.585 13.329 51.027-17.576-19.794-14.137-36.132 9.9948-50.82 21.029-119.67-4.1447-25.465-26.931 137.53-0.1921-21.743-15.079 18.11-23.604 73.726-32.612 46.158-18.21 40.21 24.549-36.306-16.673-36.491-24.721-5.2047 20.072 52.294-36.364-66.309-5.3184 21.342-9.6353 47.996-69.305-170.5-33.219-33.855 37.953 97.006-1.327 80.078-17.883 4.6882 19.271 73.728 5.3753 85.092-24.312 15.07 18.332 51.894 24.852 139.78 8.0274 32.453-1.5395 35.948-46.772-126.74-16.148 1.047-4.6565 7.7369-34.614-127.21-16.676-25.469-0.2624 39.484-40.311-89.388-16.137 5.1876 13.759 92.855-17.662 9.8036-13.043 19.344-11.027-16.802-7.2242 63.03-27.578-17.352 12.869 41.419-31.113 162.69-7.1758 50.574 23.752-106.18-29.176 83.377-2-32.629 9.7011-84.885-31.965-42.531-20.891 9.1091-17.72 117.02 18.915-261.33-13.695-63.144-0.12269 89.368-22.842 23.847-17.352 59.862-7.9538-21.632-10.814 89.686-21.809-1.5674-5.5871-81.728-16.502-41.834-34.758 13.275-22.627-75.368-36.641-112.14-46.859-12.333-28.342 119.21 31.286-127.4-15.829 2.5832-9.6253 57.622-27.019 20.229-9.2417-38.193-30.558 58.6-56.138-7.4029-26.682-19.543 18.239-6.1179-43.289 175.87-19.982 41.551 21.16-94.272-20.265 87.631-32.176-16.352 21.843-61.855-25.013 38.935-2.6055-38.062 18.964-101.84-25.613-48.519-16.656-1.4702 14.36 63.461-34.889 131.61-2.9175 20.884 0.47453-37.023-19.154 95.284-29.368 16.534 16.496 83.759 1.2515 51.676-16.332-5.6096 16.557 87.528 20.009 113.07-3.9453 42.422-10.4-54.179-16.197-42.602-18.473 14.734-18.899-47.429 21.571-119.18-17.891-51.93-9.661-54.12 19.016-77.389-13.949-27.984-8.3445 7.2302-30.107 72.737-8.6758-11 0.12219-19.792 27.433-93.259 7.2441-67.044-23.798 60.892-33.578 167.64-23.451 57.513 3.1134-32.193 12.119-63.603 18.097-95.041zm1727.2 81.094c3.5171 7.5235-1.6128 2.0114 0 0zm183.64 0.043c1.5832 1.9906-3.4798 7.4324 0 0zm-186.01 11.859c7.4781 14.472-8.836 21.862 0 0zm188.37 0.035c8.8248 21.791-7.4826 14.458 0 0zm-1999.6 16.004c5.4195 13.098-13.684 44.285 0 0zm1816.3 2.3399c8.8543 20.782-5.4803 13.222 0 0zm178.23 0.051c5.072 13.018-9.1869 21.309 0 0zm-2099.4 5.25c0.96034 0.57699-1.2753 2.1159 0 0zm196.87 3.6836c9.4789 1.9986-17.059 38.853 0 0zm-195.7 0.664c2.3488 4.9555-3.5113 8.3276 0 0zm1937.3 1.0039c-0.4738 51.828 1.0963-5.6096 0 0zm-25.938 0.059c2.0006 4.6692-2.282 5.4567 0 0zm195.59 0c2.2917 5.4662-2.0021 4.6498 0 0zm-25.91 0.012c4.058 32.593-4.2074 19.433 0 0zm-783.78 4.9219c13.428 65.456-37.304 72.542 0 0zm-487.91 0.012c38.387 76.794-12.293 65.484 0 0zm1091.4 1.9571c0.082 0.10627-0.1092 0.49381 0 0zm216.89 0.1093c0.041 0.25831-0.042 0.0521 0 0zm-1677 2.0274c29.281 37.233 19.466 154.5 3.8359 62.327 8.5234 58.369-22.611 34.799-8.0391-5.9885-23.912 72.611 1.136-35.875 4.2031-56.338zm1225.3 0c4.713 23.974 25.839 117.83 4.0781 56.389 6.8885 103.84-12.957-53.631-18 50.256-9.4674-27.154-5.8684-63.525 13.922-106.64zm686.38 0c29.27 37.242 19.465 154.5 3.832 62.327 8.514 58.37-22.597 34.797-8.043-5.9885-23.894 72.622 1.1217-35.879 4.211-56.338zm-1309 0.8906c19.275 84.986-15.553 43.152 0 0zm19.949 0c15.683 43.093-19.172 84.745 0 0zm1911.7 0c12.85 57.351-27.836 110.94-2.7837 14.847l2.7836-14.847zm-2185.5 0.9727c18.037 40.276-2.3153 103.19 2.6997 20.719-13.688 47.782-3.9474-12.11-2.6997-20.719zm527.71 0c10.481 66.636-8.2252-10.697-4.8399 69.07-1.47-23.58-7.2427-39.58 4.8399-69.07zm1384 0c17.1 44.531-0.7543 150.58 2.7544 34.896 1.2631-160.94-17.94 144.77-5.8877-13.183l3.1333-21.713zm-2592.7 1.8359c12.095 39.156-5.5733 32.284 0 0zm-112.74 2.9375c12.276 36.065-16.911 43.776 0 0zm199.41 5.2539c1.1787 11.196-3.6836 0.91441 0 0zm1004.9 1.5391c18.64 73.536-10.604 73.381 0 0zm-293.4 0c11.688 67.274-21.911 94.322 0 0zm-414.28 1.7187c12.515 65.121 25.155 131.91-4.707 24.137l2.0898-11.363zm1122 0c9.1331 49.628-33.471 139.61-6.5347 34.048l2.7632-14.165zm789.73 0c12.528 65.117 25.156 131.91-4.6992 24.137l2.0899-11.363zm-2246 1.0313c-1.0425 52.551-22.719 85.467 0 0zm-182.36 0.8203c7.0812 37.18-22.815 47.791 0 0zm2020.1 0.3164c4.1663 9.2945-1.8383 2.4677 0 0zm26.723 0c1.8425 2.4702-4.1893 9.2807 0 0zm-1018.9 0.2148c13.02 103.81 2.7953-20.873 0-2e-4zm99.391 0c6.3475 29.532-22.19 67.079 0 2e-4zm1911.7 0c12.551 48.084-29.867 97.87-5.0781 18.848zm-834.63 2.3633c1.4214 4.0426-6.2602 12.592 0 0zm-341.83 0.051c6.228 12.489-1.4206 4.0097 0 0zm-1521 1.5469c8.0666 24.043-5.6452 13.749 0 0zm1911.7 0c8.0804 24.05-5.6571 13.746 0 0zm-439.69 0c5.5842 12.348-8.173 19.573 0 0zm-457.34 0.012c4.6768 9.5121-8.4256 17.559 0 0zm-557.33 0.019c8.3806 17.552-4.6282 9.4974 0 0zm2318.7 2.1641c7.3022 33.842-14.477 24.559 0 0zm-2902.4 0.4766c4.7215 11.924-4.9475 8.6424 0 0zm990.49 0.035c5.4505 15.071-11.33 34.961 0 0zm-256.25 0c11.344 34.321-5.5102 16.175 0 0zm959.93 0.5977c9.9353 22.612-18.646 39.16 0 0zm248.11 0.027c18.685 36.768-9.1118 27.385 0 0zm-1104 0.1211c3.0418 3.8654-4.417 15.927 0 0zm48.211 0c4.3763 15.786-3.01 3.832 0 0zm1911.7 0c6.1441 26.251-3.7766 5.8581 0 0zm-2787.9 1.2031c7.2442 8.4476-8.0112 16.803 0 0zm1704.1 0c4.7288 21.041-3.4625 8.2451 0 0zm207.62 0c4.3706 10.12-5.5067 14.984 0 0zm-1153.8 1.8008c6.5696 4.111-11.595 21.605 0 0zm188.35 0.023c9.0556 16.853-3.191 12.139 0 0zm-400.85 0.5547c9.2152 25.029-22.523 44.543 0 0zm613.35 0c22.496 44.568-9.2059 25.026 0 0zm1911.7 0c39.768 45.709-21.507 161.06-8.8268 56.379 2.1211-18.907 4.9653-37.755 8.8268-56.379zm-2512 0.4024c1.6022 2.177-4.2969 5.4645 0 0zm1911.7 0c1.686 2.1797-4.2971 5.4596 0 0zm-1324.4 0.2109c3.8543 5.0762-1.3556 2.0005 0 0zm-700.2 0.3828c3.7995 2.2678-4.4354 12.004 0 0zm813.01 0c4.4354 12.004-3.7996 2.2678 0 0zm1098.7 0c3.7685 2.2601-4.4095 12.016 0 0zm-2370.6 3.6367c1.1914 1.1217-2.5953 3.6374 0 0zm-159.52 1.6954c2.4776 11.56-3.3819 1.3316 0 0zm49.594 0.09c23.424 35.698-19.274 32.905 0 0zm2105.6 0.012c8.0209 26.426-9.5008 41.213 0 0zm-348.86 0.043c12.966 28.333-8.7179 43.073 0 0zm-1645.4 2.6992c5.4417 12.405-5.7332 13.016 0 0zm132.74 0.3711c20.963 48.989-6.2449 59.977 0 0zm1462.4 0c13.415 28.521-17.533 49.711 0 0zm449.32 0c15.095 33.314-10.43 30.925 0 0zm-960.3 0.2305c1.8153 15.932-12.834 38.858 0 0zm-440.43 0.012c11.455 34.338-0.245 21.491 0 0zm-772.31 1.0625c9.3112 39.277-13.215 32.248 0 0zm587.8 1.6523c6.3305 25.068-9.3237 16.197 0 0zm809.44 0c9.3355 16.194-6.3138 25.067 0 0zm1102.3 0c6.3287 25.099-9.3088 16.177 0 0zm536.67 2.4532c3.7738 18.846-7.337 22.11 0 0zm-2175.6 0.082c9.5087 23.604-4.4315 16.201 0 0zm263.89 0c4.6144 15.87-7.7071 22.335 0 0zm1976.5 0.4609c3.1039 58.832-10.09 82.552 0 0zm-2126.4 0.2461c2.7584 2.3496-4.4442 9.6189 0 0zm35.949 0c4.4115 9.5605-2.7197 2.3396 0 0zm1911.7 0c17.001 63.997-18.321 57.197 0 0zm-2604.5 0.082c4.3062 10.448-2.9514 5.5338 0 0zm1349.6 0c2.979 5.5318-4.3255 10.447 0 0zm562.09 0c4.3392 10.445-2.9659 5.5329 0 0zm-1978.9 1.6562c2.5153 8.8439-6.7544 22.207 0 0zm1484.1 0c6.7583 22.207-2.5283 8.8428 0 0zm427.6 0c2.533 8.843-6.7753 22.207 0 0zm-1260 1.207c-3.8417 50.355-15.889 58.24 0 0zm180.78 0.024c15.831 58.113 3.8613 50.427 0 0zm826.27 2.2422c1.4222 5.6914-1.9965 4.6335 0 0zm78.371 0c2.0161 4.6353-1.4082 5.6887 0 0zm-1562.5 0.4922c8.7227 46.19 19.104 84.405-2.6524 18.887zm1134.9 0c4.617 39.005-25.467 92.819-3.2383 16.168zm776.79 0c8.7324 46.189 19.11 84.406-2.6485 18.887zm-1328 0.6054c31.981 45.024-16.698 17.521 0 0zm-32.461 0.02c13.68 15.04-20.048 41.852 0 0zm1628.2 0.1445c-6.8728 60.722-15.384 33.294 0 0zm-1731.8 1.0898c10.73 24.584-8.5809 18.77 0 0zm239.45 0c8.5709 18.763-10.701 24.565 0 0zm1911.7 0c9.2305 19.105-16.079 35.202 0 0zm-2844.8 0.1367c20.363 41.446-15.734 39.296 0 0zm423.97 1.5508c6.9672 36.362 4.6418 79.321 0-1e-4zm778.8 0c-6.3486 82.208-5.17 48.364-3.3086 16.742l3.3086-16.742zm1132.9 0c14.939 56.792-1.076 73.864 0 0zm-1860 0.5703c11.351 34.245-4.8996 54.184 2e-5 2e-4zm675.3 0.02c3.4434 74.575-12.013 36.001 0 0zm-1428 1.875c11.557 20.557-7.2353 17.124 0 0zm687.84 0c5.4941 18.179-7.8927 18.822 0 0zm804.99 0c7.8993 18.826-5.5085 18.176 0 0zm1106.7 0c5.4774 18.183-7.8915 18.821 0 0zm-1810.9 0.4922c-1.6129 61.005-12.977 18.488 0 0zm603.41 0c12.719 17.525 2.1445 61.255 0 0zm-741.7 2.1445c12.916 81.896-9.2108 40.711 0 0zm1911.7 0c9.1249 92.141-8.5938 65.797 0 0zm-1031.7 0c9.7802 33.467-12.98 83.525 0 0zm-727.94 0.3633c14.404 57.992 3.8664 32.973 0 0zm575.89 0c-2.7777 28.48-13.536 50.03 0 0zm1335.8 0c15.11 49.456 2.7441 62.524 0 0zm-1793.6 0.5547c5.3281 4.9322-15.766 48.88 0 0zm339.59 0 3.9297 20.242c-2.5711-6.4046-7.0511-12.027-3.9297-20.242zm1572.1 0c5.3104 4.9298-15.779 48.883 0 0zm-1968.7 1.0898c19.874 46.725-12.334 29.006 0 0zm453.63 0c12.316 29.045-19.885 46.689 0 0zm1458.1 0c23.465 58.288-1.0459 49.916 0 0zm-2362.3 0.6133c1.0375 1.6379-2.0766 6.0919 0 0zm1354.9 0c2.0243 6.0896-1.0022 1.644 0 0zm556.83 0c1.0362 1.6369-2.0652 6.0931 0 0zm737.3 1.5742c19.838 54.681-8.0204 48.545 0 0zm-2498.8 0.461c-9.223 64.031-11.427 60.797 0 0zm1054.4 0c8.6464 41.054 12.083 85.154 0 0zm857.28 0c-9.2285 64.022-11.419 60.808 0 0zm-2256.7 0.6109c10.7 22.831-12.021 22.437 0 0zm1328.2 0.543c7.4087 14.414-9.2001 18.666 0 0zm-911.97 0.027c9.1711 18.67-7.3871 14.373 0 0zm-517.23 2.1406c3.1723 3.709-5.151 16.355 0 0zm234.43 0.7891c10.114 8.116-12.604 92.036 0 0zm1477.6 0c1.3224 2.4847-0.6905 0.6559 0 0zm434.15 0c0.7141 0.66329-1.3411 2.5063 0 0zm-1172.9 3c1.5946 8.8772-1.5783 8.8924 0 0zm-643.79 0.1406c18.163 54.461-14.024 14.916 0 0zm729.67 1.8125c2.7379 12.104-4.6913 25.123 0 0zm-171.74 0.01c1.8894 30.531 0.5687 4.5304 0 0zm823.87 0.5958c10.512 18.747-6.5951 5.7199 0 0zm435.7 0.012c6.701 5.2709-10.567 19.129 0 0zm681.9 0.3945c3.684 10.283-2.1208 2.3571 0 0zm-2426.3 0.4063c17.672 58.273-4.1653 78.457 0 0zm1141.4 0c5.7349 57.698-17.104 60.814 0 0zm770.31 0c17.682 58.273-4.1617 78.455 0 0zm-2028.9 1.2773c2.3617 9.9542-4.0779 1.1288 0 0zm336.41 0.5743c0.75876 2.0997-1.2242 2.645 0 0zm702.89 0c1.2066 2.6542-0.7644 2.0825 0 0zm1208.8 0c1.8639 6.9858-1.388 1.4853 0 0zm158.43 1.0351c5.6567 35.432-3.7435 56.031 0 0zm-2912 0.4141c3.1868 11.16-3.9058 18.349 0 0zm3232.2 0.2695c7.1175 15.102-8.5205 47.486 0 0zm-1581.1 1.4649c11.166 34.755-5.696 9.0552 0 0zm-915.57 0.019c5.6834 9.0473-11.164 34.712 0 0zm2359 0.9961c5.8475 14.196-7.2488 2.9616 0 0zm253.01 0.125c13.843 22.011-5.8516 43.16 0 0zm-3229.2 0.2033c2.625 10.725 2.9483 43.116 0 0zm88.688 0.3203c1.7174 3.6358-1.1904 0.86192 0 0zm859.74 0.9141c1.7512 0.87687-1.1809 8.3999 0 0zm253.22 0.1133c1.184 8.0856-1.7257 0.86965 0 0zm610.14 0.4609c4.2625 14.883-4.1468 9.8304 0 0zm438.22 0.047c3.7731 10.005-4.2881 14.914 0 0zm-1896.3 0.3008c-1.7631 45.748-6.9612 9.3291 0 0zm198.23 0.9648c14.169 53.118-12.234 75.018 0 0zm1046.3 0c12.233 75.023-14.172 53.116 0 0zm865.42 0c14.167 53.125-12.232 75.012 0 0zm-2207.3 0.3437c8.6128 30.114 8.3906 44.885 0 0zm3076.2 0.8868c16.367 54.335-11.986 72.743 0 0zm-755.52 0.6523c1.6601 1.5802-1.9897 8.8518 0 0zm-2192.2 0.207c4.8325 11.007-12.747 35.618 0 0zm2589.6 3.8204c7.5367 29.069-11.911 50.493 0 0zm18.938 1.5039c2.3631 10.086-2.9587 1.3548 0 0zm-2889.1 0.5155c0.32607 1.5724-0.18387 0.36702 0 0zm302.73 1.0508c13.015 31.397-6.9343 42.893 0 0zm1911.7 0c12.666 36.66-4.907 50.067 0 0zm-575.69 0.0351c5.3401 45.72-12.77 41.582 0 0zm-1819.7 0.4258c12.352 31.906-7.179 3.5638 0 0zm2923.6 3.7031c1.7116 0.71395-1.7037 3.1779 0 0zm162.66 0c-0.089 8.3513-6.5544 15.535 0 0zm302.74 0.6211c5.868 52.733-11.388 16.554 0 0zm-2634.3 0.1485c1.7258 7.1311-1.7734 7.4107 0 0zm794.11 0c1.7682 7.4099-1.7176 7.132 0 0zm1117.6 0.01c1.7295 7.157-1.7776 7.363 0 0zm359.62 0.2929c5.7536 10.893-5.3672 23.043 0 0zm-102.6 0.875c1.8538 8.8745-5.6446 32.651 0 0zm-2961.6 0.3868c8.3558 51.002 3.6217 50.718 0 0zm943.85 0.164c2.8032 7.2494-1.7742 2.903 0 0zm492.19 0c1.7787 2.8689-2.8004 7.2669 0 0zm1419.5 0c2.521 6.7159-4.385 12.548 0 0zm-1472.3 0.9297c0.3913 1.575-0.7658 11.16 0 0zm-386.69 0.024c0.7673 11.098-0.3927 1.5641 0 0zm1810 0.6914c1.9985 1.5862-2.9736 6.8359 0 0zm39.762 1.2773c1.2315 3.6228-2.7323 6.5226 0 0zm194.67 3.918c0.3142 0.28011-0.482 1.2372 0 0zm-2597.3 0.02c7.4541 36.63-3.7839 39.039 0 0zm69.219 0.9922c0.63263 9.3318-2.0171 8.1822 0 0zm-595.41 0.6875c7.0162 60.43 0.03652 135.46-3.6562 30.168 0.97606-10.083 2.2476-20.136 3.6562-30.168zm3435.6 0.6172c0.1163 11.193-1.6385 8.4134 0 0zm-3334.2 1.5469c1.3224 4.1899-0.29469 1.3455 0 0zm3357.7 0.2539c4.4571 7.1853-5.6866 12.946 0 0zm-271.98 1.1367c2.2027 4.7343-0.8457 1.326 0 0zm180.72 1.1562c0.8315 10.849-8.6573 21.331 0 0zm-2719.4 0.09c6.6041 31.314-4.986 13.973 0 0zm1248 0c4.5707 13.177-5.3924 32.414 0 0zm663.73 0c6.61 31.309-4.979 13.98 0 0zm832.24 0.2929c0.5395 4.3219-2.9717 12.92 0 0zm-45.277 0.2032c1.0464 3.2677-1.4452 12.153 0 0zm-2874.2 0.4062c3.3038 21.404-3.0702 2.1522 0 0zm2463.5 0.6328c4.799 9.6995-0.4059 60.119 0 0zm-2275 0.094c0.39969 32.104-4.6816 3.3169 0 0zm1221.9 0c4.6597 3.3172-0.3781 32.105 0 0zm689.81 0c0.4288 32.101-4.6901 3.3196 0 0zm765.28 0.7187c1.728 13.843-3.2204 1.9379 0 0zm-138.18 0.7735c3.1988 15.504-5.7617 11.948 0 0zm-370.35 1.5547c5.2507 18.141 4.1002-15.007 0 4e-4zm-1136.6 3.1992c1.7716 2.4656-1.0339 12.748 0 0zm1069.8 0c1.0155 12.752-1.7842 2.4609 0 0zm-1911.7 0.012c1.0322 12.72-1.7804 2.4607 0 0zm2424.3 1.7969c0.1496 0.46815-0.1886 0.98183 0 0zm143.68 2.3047c1.3968 1.6161-3.2457 5.8224 0 0zm96.77 0.4257c11.54 38.632-10.961 27.453 0 0zm-421.59 5.0703c9.4017 55.162-1.4815 34.421 0.1094 2.9766zm409.38 0.4219c-4.4464 56.538-11.986 23.291 5e-4 -1e-4zm-487.08 0.6016c1.3119 9.501-2.1559 16.77 0 0zm425.65 1.0195c2.1279 34.588-4.8238 23.396 0 0zm-96.551 2.457c0.189-0.0411-0.1637 0.57308 0 0zm-2782.3 0.8711c0.82215 2.6779-3.0256 11.064 0 0zm191.95 1.6368c6.0724 17.582-4.7007 3.7998 0 0zm1033.3 0c4.6929 3.7961-6.0462 17.587 0 0zm878.38 0c6.0595 17.585-4.697 3.7979 0 0zm-2037 1.2421c4.7039 20.196-1.2585 15.837 0 0zm-611.2 1.918c12.108 48.166-6.5759 74.65 0 0zm3163.6 0.4103c-3.7188 53.191-4.785 59.399 0 0zm-1269.7 1.9609c1.5167 18.802-2.3499 4.4196 6e-4 0zm630.06 0c3.6834 7.3991-4.1007 17.196 0 0zm236.15 3.3047c3.7125 12.128-2.1056 11.188 0 0zm-2176.7 0.1719c2.298 19.812-1.1781 4.5248 0 0zm64.145 1.1484c-0.0499 0.76649-0.0544 0.18098 0 0zm1911.7 0c-0.061 0.72753-0.043 0.21673 0 0zm-2000.1 0.2383c1.0526 3.2406-0.46618 1.1763 0 0zm3007 1.1758c4.4891 6.7572-13.957 23.283 0 0zm-2833.9 0.7265c0.99593 9.2439 1.4201 61.245 0 0zm1041.6 0c0.1305 47.162-2.8858 28.271 0 0zm870.12 0c0.9746 9.2545 1.4271 61.236 0 0zm281.01 0.6719c2.6246 8.5689-0.9778 2.3588 0 0zm-2227 6.0625c-1.0012 28.529-2.9799 5.5931 0 0zm1110.1 0c2.9939 5.591 1.0007 28.531 0 0zm801.61 0c-0.9978 28.524-2.9654 5.5981 0 0zm881.6 1.5234c15.082 31.402-6.9175 20.158 0 0zm-15.949 1.4649c1.1056 16.143-4.2293 16.28 0 0zm51.719 2.4258c3.7842 27.945-8.2226 6.501 0 0zm39 2.5312c10.754 55.987-9.0133 12.531 0 0zm-646.68 0.625c2.7972 0.6161-1.3559 9.5507 0 0zm-2274.1 4.918c1.0758 33.911-4.8895 36.139 0 0zm1215.5 0c3.5473 48.263 0.5699 37.441-2e-4 0zm696.24 0c1.0858 33.954-4.9076 36.099 0 0zm709.82 1.3476c1.9773 5.086-5.3138 19.868 0 0zm-2586.9 0.1368c6.3038 16.906-11.566 25.84 0 0zm1146.2 0c11.57 25.832-6.3135 16.913 0 0zm765.54 0c6.3088 16.908-11.561 25.838 0 0zm-2017.2 0.8398c6.1484 16.165-5.5249 3.2298 0 0zm2212.2 0.4961c4.9124 23.514-8.4082 39.038 0 0zm-1978.2 1c-0.0192 1.4499-0.75838 1.4623 0 0zm1911.7 0c-2e-4 1.4334-0.7827 1.4795 0 0zm-1022.6 0.039c0.7381 1.4325-0.015 1.3758 0 0zm1809.6 0.5586c4.2144 13.713-0.906 3.6131 0 0zm-2952.2 2.289c0.74859 2.4052-0.17017 0.64816 0 0zm2367.8 6.918c3.8098 11.825-3.1225 9.6861 0 0zm566.37 4.1445c1.5276 10.223-1.5527 12.599 0 0zm137.65 1.6953c-4.9998 9.2817-9.0059 32.801 0 0zm-515.17 9.4649c1.6021 5.1388-2.2471 8.2823 0 0z"/>
</svg>
